<svg width="911.33" height="81.104" viewBox="0 0 911.33 81.104" xmlns="http://www.w3.org/2000/svg"><g id="svgGroup" stroke-linecap="round" fill-rule="evenodd" font-size="9pt" stroke="#000" stroke-width="0.25mm" fill="none" style="stroke:#000;stroke-width:0.25mm;fill:none"><path d="M 184.961 22.168 L 197.51 62.549 L 207.666 22.168 L 216.699 22.168 L 201.318 75 L 193.994 75 L 181.152 34.961 L 168.652 75 L 161.328 75 L 145.996 22.168 L 154.98 22.168 L 165.381 61.719 L 177.686 22.168 L 184.961 22.168 Z M 679.736 0 L 679.736 28.564 Q 685.742 21.191 695.361 21.191 A 21.166 21.166 0 0 1 702.4 22.264 Q 712.144 25.694 712.256 40.088 L 712.256 75 L 703.223 75 L 703.223 40.039 Q 703.174 34.326 700.61 31.592 Q 698.543 29.386 694.616 28.96 A 18.441 18.441 0 0 0 692.627 28.857 A 13.921 13.921 0 0 0 688.023 29.599 A 12.481 12.481 0 0 0 684.912 31.201 A 15.915 15.915 0 0 0 679.736 37.354 L 679.736 75 L 670.703 75 L 670.703 0 L 679.736 0 Z M 513.33 75 L 494.922 50.537 L 489.258 56.445 L 489.258 75 L 480.225 75 L 480.225 0 L 489.258 0 L 489.258 45.361 L 494.092 39.551 L 510.547 22.168 L 521.533 22.168 L 500.977 44.238 L 523.926 75 L 513.33 75 Z M 265.186 37.695 L 256.104 37.695 Q 256.104 33.984 252.954 31.299 Q 249.805 28.613 245.02 28.613 A 18.294 18.294 0 0 0 242.014 28.845 Q 240.417 29.111 239.127 29.684 A 8.839 8.839 0 0 0 237.305 30.762 A 7.251 7.251 0 0 0 235.36 32.969 Q 234.548 34.427 234.522 36.258 A 8.552 8.552 0 0 0 234.521 36.377 A 6.531 6.531 0 0 0 234.856 38.52 A 5.329 5.329 0 0 0 237.109 41.309 A 12.15 12.15 0 0 0 238.779 42.18 Q 240.603 42.98 243.443 43.744 A 73.127 73.127 0 0 0 246.46 44.482 A 70.196 70.196 0 0 1 250.99 45.646 Q 254.732 46.751 257.422 48.096 Q 261.621 50.195 263.647 53.149 A 11.381 11.381 0 0 1 265.45 57.673 A 15.424 15.424 0 0 1 265.674 60.352 A 14.224 14.224 0 0 1 264.432 66.367 Q 263.022 69.432 260.01 71.704 Q 254.65 75.747 246.273 75.964 A 37.071 37.071 0 0 1 245.312 75.977 A 30.507 30.507 0 0 1 239.375 75.424 A 23.595 23.595 0 0 1 234.082 73.73 A 19.676 19.676 0 0 1 229.261 70.64 A 17.116 17.116 0 0 1 226.44 67.456 A 15.123 15.123 0 0 1 223.682 58.74 L 232.715 58.74 A 10.358 10.358 0 0 0 233.531 62.354 A 9.193 9.193 0 0 0 236.353 65.942 A 11.912 11.912 0 0 0 240.822 68.085 Q 242.855 68.604 245.313 68.604 A 20.695 20.695 0 0 0 248.598 68.358 Q 250.392 68.069 251.854 67.44 A 10.452 10.452 0 0 0 253.54 66.528 A 7.656 7.656 0 0 0 255.368 64.857 A 6.156 6.156 0 0 0 256.641 60.986 A 7.761 7.761 0 0 0 256.236 58.422 A 6.452 6.452 0 0 0 253.882 55.298 A 11.672 11.672 0 0 0 252.006 54.202 Q 249.908 53.2 246.63 52.36 A 59.907 59.907 0 0 0 244.263 51.807 Q 239.761 50.845 236.478 49.632 A 29.103 29.103 0 0 1 233.374 48.291 A 20.571 20.571 0 0 1 230.648 46.643 Q 229.192 45.59 228.16 44.38 A 11.305 11.305 0 0 1 227.417 43.408 A 11.071 11.071 0 0 1 225.609 38.556 A 14.346 14.346 0 0 1 225.488 36.67 A 13.405 13.405 0 0 1 229.922 26.617 A 18.819 18.819 0 0 1 230.981 25.684 Q 236.475 21.191 245.02 21.191 A 28.433 28.433 0 0 1 251.281 21.844 A 19.527 19.527 0 0 1 259.595 25.83 A 15.379 15.379 0 0 1 263.788 31.116 A 15.243 15.243 0 0 1 265.186 37.695 Z M 910.84 37.695 L 901.758 37.695 Q 901.758 33.984 898.608 31.299 Q 895.459 28.613 890.674 28.613 A 18.294 18.294 0 0 0 887.669 28.845 Q 886.071 29.111 884.781 29.684 A 8.839 8.839 0 0 0 882.959 30.762 A 7.251 7.251 0 0 0 881.014 32.969 Q 880.202 34.427 880.177 36.258 A 8.552 8.552 0 0 0 880.176 36.377 A 6.531 6.531 0 0 0 880.51 38.52 A 5.329 5.329 0 0 0 882.764 41.309 A 12.15 12.15 0 0 0 884.433 42.18 Q 886.257 42.98 889.097 43.744 A 73.127 73.127 0 0 0 892.114 44.482 A 70.196 70.196 0 0 1 896.644 45.646 Q 900.386 46.751 903.076 48.096 Q 907.275 50.195 909.302 53.149 A 11.381 11.381 0 0 1 911.105 57.673 A 15.424 15.424 0 0 1 911.328 60.352 A 14.224 14.224 0 0 1 910.086 66.367 Q 908.676 69.432 905.664 71.704 Q 900.304 75.747 891.927 75.964 A 37.071 37.071 0 0 1 890.967 75.977 A 30.507 30.507 0 0 1 885.029 75.424 A 23.595 23.595 0 0 1 879.736 73.73 A 19.676 19.676 0 0 1 874.915 70.64 A 17.116 17.116 0 0 1 872.095 67.456 A 15.123 15.123 0 0 1 869.336 58.74 L 878.369 58.74 A 10.358 10.358 0 0 0 879.186 62.354 A 9.193 9.193 0 0 0 882.007 65.942 A 11.912 11.912 0 0 0 886.476 68.085 Q 888.51 68.604 890.967 68.604 A 20.695 20.695 0 0 0 894.252 68.358 Q 896.047 68.069 897.509 67.44 A 10.452 10.452 0 0 0 899.194 66.528 A 7.656 7.656 0 0 0 901.022 64.857 A 6.156 6.156 0 0 0 902.295 60.986 A 7.761 7.761 0 0 0 901.891 58.422 A 6.452 6.452 0 0 0 899.536 55.298 A 11.672 11.672 0 0 0 897.66 54.202 Q 895.562 53.2 892.284 52.36 A 59.907 59.907 0 0 0 889.917 51.807 Q 885.415 50.845 882.132 49.632 A 29.103 29.103 0 0 1 879.028 48.291 A 20.571 20.571 0 0 1 876.302 46.643 Q 874.846 45.59 873.814 44.38 A 11.305 11.305 0 0 1 873.071 43.408 A 11.071 11.071 0 0 1 871.263 38.556 A 14.346 14.346 0 0 1 871.143 36.67 A 13.405 13.405 0 0 1 875.577 26.617 A 18.819 18.819 0 0 1 876.636 25.684 Q 882.129 21.191 890.674 21.191 A 28.433 28.433 0 0 1 896.935 21.844 A 19.527 19.527 0 0 1 905.249 25.83 A 15.379 15.379 0 0 1 909.442 31.116 A 15.243 15.243 0 0 1 910.84 37.695 Z M 422.168 3.906 L 422.168 11.621 L 399.316 11.621 L 399.316 75 L 389.99 75 L 389.99 11.621 L 367.188 11.621 L 367.188 3.906 L 422.168 3.906 Z M 467.871 75 L 458.398 75 Q 457.617 73.438 457.129 69.434 A 21.481 21.481 0 0 1 450.22 74.341 A 20.155 20.155 0 0 1 442.09 75.977 A 22.593 22.593 0 0 1 436.209 75.248 A 16.988 16.988 0 0 1 429.272 71.558 A 14.202 14.202 0 0 1 424.288 61.217 A 17.812 17.812 0 0 1 424.268 60.352 A 17.307 17.307 0 0 1 425.206 54.521 A 14.557 14.557 0 0 1 430.542 47.534 Q 436.816 42.969 448.193 42.969 L 456.982 42.969 L 456.982 38.818 A 12.803 12.803 0 0 0 456.585 35.541 A 9.196 9.196 0 0 0 454.15 31.274 Q 451.318 28.467 445.801 28.467 A 15.837 15.837 0 0 0 442 28.901 A 11.865 11.865 0 0 0 437.695 30.908 A 9.506 9.506 0 0 0 435.866 32.664 A 6.582 6.582 0 0 0 434.424 36.816 L 425.342 36.816 A 11.565 11.565 0 0 1 426.73 31.387 A 15.652 15.652 0 0 1 428.149 29.175 A 18.11 18.11 0 0 1 433.22 24.67 A 22.807 22.807 0 0 1 435.767 23.34 A 24.987 24.987 0 0 1 444.385 21.255 A 29.659 29.659 0 0 1 446.338 21.191 A 29.439 29.439 0 0 1 452.087 21.719 Q 457.228 22.743 460.645 25.757 A 15.51 15.51 0 0 1 465.682 34.935 A 22.2 22.2 0 0 1 466.016 38.33 L 466.016 62.646 A 46.423 46.423 0 0 0 466.215 67.1 Q 466.624 71.332 467.871 74.219 L 467.871 75 Z M 275.146 50.049 L 275.146 48.389 A 35.217 35.217 0 0 1 275.994 40.511 A 28.681 28.681 0 0 1 278.149 34.351 A 24.345 24.345 0 0 1 283.121 27.4 A 22.592 22.592 0 0 1 286.548 24.683 A 21.115 21.115 0 0 1 298.242 21.191 A 25.048 25.048 0 0 1 305.054 22.068 A 18.214 18.214 0 0 1 314.258 27.979 Q 319.971 34.766 319.971 47.412 L 319.971 51.172 L 284.18 51.172 A 23.461 23.461 0 0 0 284.969 56.817 A 16.845 16.845 0 0 0 288.745 63.794 A 14.244 14.244 0 0 0 299.124 68.589 A 18.354 18.354 0 0 0 299.854 68.604 A 19.593 19.593 0 0 0 303.5 68.281 Q 305.822 67.841 307.695 66.801 A 12.287 12.287 0 0 0 307.959 66.65 Q 311.279 64.697 313.77 61.475 L 319.287 65.771 A 21.402 21.402 0 0 1 303.734 75.675 A 30.546 30.546 0 0 1 299.365 75.977 A 26.605 26.605 0 0 1 291.019 74.722 A 21.937 21.937 0 0 1 281.885 68.921 A 23.728 23.728 0 0 1 275.838 57.13 A 34.476 34.476 0 0 1 275.146 50.049 Z M 527.588 50.049 L 527.588 48.389 A 35.217 35.217 0 0 1 528.435 40.511 A 28.681 28.681 0 0 1 530.591 34.351 A 24.345 24.345 0 0 1 535.563 27.4 A 22.592 22.592 0 0 1 538.989 24.683 A 21.115 21.115 0 0 1 550.684 21.191 A 25.048 25.048 0 0 1 557.496 22.068 A 18.214 18.214 0 0 1 566.699 27.979 Q 572.412 34.766 572.412 47.412 L 572.412 51.172 L 536.621 51.172 A 23.461 23.461 0 0 0 537.411 56.817 A 16.845 16.845 0 0 0 541.187 63.794 A 14.244 14.244 0 0 0 551.565 68.589 A 18.354 18.354 0 0 0 552.295 68.604 A 19.593 19.593 0 0 0 555.941 68.281 Q 558.264 67.841 560.136 66.801 A 12.287 12.287 0 0 0 560.4 66.65 Q 563.721 64.697 566.211 61.475 L 571.729 65.771 A 21.402 21.402 0 0 1 556.176 75.675 A 30.546 30.546 0 0 1 551.807 75.977 A 26.605 26.605 0 0 1 543.46 74.722 A 21.937 21.937 0 0 1 534.326 68.921 A 23.728 23.728 0 0 1 528.279 57.13 A 34.476 34.476 0 0 1 527.588 50.049 Z M 24.658 75 L 0 75 L 0 3.906 L 23.242 3.906 Q 34.814 3.906 40.649 8.691 A 15.372 15.372 0 0 1 45.886 17.317 A 24.045 24.045 0 0 1 46.484 22.852 A 14.44 14.44 0 0 1 43.652 31.665 A 17.653 17.653 0 0 1 37.976 36.596 A 21.915 21.915 0 0 1 35.938 37.598 A 17.455 17.455 0 0 1 41.655 40.33 A 16.069 16.069 0 0 1 45.044 43.726 A 17.015 17.015 0 0 1 48.288 52.372 A 21.793 21.793 0 0 1 48.389 54.492 A 23.767 23.767 0 0 1 47.553 60.967 A 17.527 17.527 0 0 1 42.188 69.531 A 20.359 20.359 0 0 1 34.498 73.696 Q 31.536 74.593 27.996 74.873 A 42.332 42.332 0 0 1 24.658 75 Z M 635.156 47.168 L 618.408 47.168 L 618.408 75 L 609.033 75 L 609.033 3.906 L 635.254 3.906 A 36.837 36.837 0 0 1 642.641 4.602 Q 647.115 5.518 650.565 7.64 A 20.433 20.433 0 0 1 653.54 9.863 A 19.686 19.686 0 0 1 660.065 23.387 A 27.227 27.227 0 0 1 660.156 25.635 A 26.474 26.474 0 0 1 659.392 32.189 A 17.94 17.94 0 0 1 653.687 41.577 Q 647.217 47.168 635.156 47.168 Z M 786.035 9.375 L 795.068 9.375 L 795.068 22.168 L 804.932 22.168 L 804.932 29.15 L 795.068 29.15 L 795.068 61.914 A 12.204 12.204 0 0 0 795.185 63.659 Q 795.314 64.549 795.586 65.268 A 4.894 4.894 0 0 0 796.387 66.675 A 3.9 3.9 0 0 0 797.996 67.801 Q 798.655 68.06 799.485 68.173 A 10.308 10.308 0 0 0 800.879 68.262 A 11.617 11.617 0 0 0 801.962 68.205 Q 803.104 68.097 804.657 67.784 A 44.686 44.686 0 0 0 805.176 67.676 L 805.176 75 A 27.369 27.369 0 0 1 800.367 75.881 A 23.968 23.968 0 0 1 798.242 75.977 Q 793.274 75.977 790.312 73.511 A 9.511 9.511 0 0 1 789.111 72.314 A 12.049 12.049 0 0 1 786.865 68.085 Q 786.035 65.415 786.035 61.914 L 786.035 29.15 L 776.416 29.15 L 776.416 22.168 L 786.035 22.168 L 786.035 9.375 Z M 361.865 3.906 L 332.227 81.104 L 324.463 81.104 L 354.15 3.906 L 361.865 3.906 Z M 91.309 48.73 L 91.309 48.096 A 33.961 33.961 0 0 1 92.274 39.856 A 28.587 28.587 0 0 1 94.36 34.131 A 23.999 23.999 0 0 1 98.968 27.625 A 21.745 21.745 0 0 1 102.856 24.561 A 22.626 22.626 0 0 1 113.35 21.258 A 27.674 27.674 0 0 1 115.283 21.191 A 25.301 25.301 0 0 1 123.654 22.521 A 21.518 21.518 0 0 1 132.739 28.662 A 25.439 25.439 0 0 1 138.506 40.092 A 37.474 37.474 0 0 1 139.404 48.535 L 139.404 49.17 A 34.597 34.597 0 0 1 138.521 57.133 A 28.637 28.637 0 0 1 136.45 63.013 A 22.849 22.849 0 0 1 130.591 70.68 A 22.23 22.23 0 0 1 128.003 72.559 A 22.726 22.726 0 0 1 117.783 75.876 A 28.098 28.098 0 0 1 115.381 75.977 A 25.13 25.13 0 0 1 107.043 74.647 A 21.534 21.534 0 0 1 97.974 68.506 Q 91.309 61.035 91.309 48.73 Z M 723.389 48.73 L 723.389 48.096 A 33.961 33.961 0 0 1 724.354 39.856 A 28.587 28.587 0 0 1 726.44 34.131 A 23.999 23.999 0 0 1 731.048 27.625 A 21.745 21.745 0 0 1 734.937 24.561 A 22.626 22.626 0 0 1 745.43 21.258 A 27.674 27.674 0 0 1 747.363 21.191 A 25.301 25.301 0 0 1 755.734 22.521 A 21.518 21.518 0 0 1 764.819 28.662 A 25.439 25.439 0 0 1 770.586 40.092 A 37.474 37.474 0 0 1 771.484 48.535 L 771.484 49.17 A 34.597 34.597 0 0 1 770.601 57.133 A 28.637 28.637 0 0 1 768.53 63.013 A 22.849 22.849 0 0 1 762.671 70.68 A 22.23 22.23 0 0 1 760.083 72.559 A 22.726 22.726 0 0 1 749.863 75.876 A 28.098 28.098 0 0 1 747.461 75.977 A 25.13 25.13 0 0 1 739.123 74.647 A 21.534 21.534 0 0 1 730.054 68.506 Q 723.389 61.035 723.389 48.73 Z M 812.109 48.73 L 812.109 48.096 A 33.961 33.961 0 0 1 813.075 39.856 A 28.587 28.587 0 0 1 815.161 34.131 A 23.999 23.999 0 0 1 819.769 27.625 A 21.745 21.745 0 0 1 823.657 24.561 A 22.626 22.626 0 0 1 834.151 21.258 A 27.674 27.674 0 0 1 836.084 21.191 A 25.301 25.301 0 0 1 844.455 22.521 A 21.518 21.518 0 0 1 853.54 28.662 A 25.439 25.439 0 0 1 859.306 40.092 A 37.474 37.474 0 0 1 860.205 48.535 L 860.205 49.17 A 34.597 34.597 0 0 1 859.322 57.133 A 28.637 28.637 0 0 1 857.251 63.013 A 22.849 22.849 0 0 1 851.392 70.68 A 22.23 22.23 0 0 1 848.804 72.559 A 22.726 22.726 0 0 1 838.584 75.876 A 28.098 28.098 0 0 1 836.182 75.977 A 25.13 25.13 0 0 1 827.844 74.647 A 21.534 21.534 0 0 1 818.774 68.506 Q 812.109 61.035 812.109 48.73 Z M 86.377 21.875 L 86.377 30.273 A 25.009 25.009 0 0 0 83.68 29.98 A 30.912 30.912 0 0 0 81.934 29.932 Q 73.291 29.932 70.052 37.09 A 16.051 16.051 0 0 0 69.873 37.5 L 69.873 75 L 60.84 75 L 60.84 22.168 L 69.629 22.168 L 69.775 28.271 A 16.014 16.014 0 0 1 73.63 23.957 Q 77.277 21.191 82.373 21.191 A 16.507 16.507 0 0 1 83.756 21.245 Q 85.187 21.366 86.118 21.756 A 4.272 4.272 0 0 1 86.377 21.875 Z M 103.114 61.221 A 17.164 17.164 0 0 0 104.468 63.281 Q 108.545 68.604 115.381 68.604 Q 122.144 68.604 126.174 63.397 A 16.377 16.377 0 0 0 126.318 63.208 Q 129.537 58.923 130.199 51.912 A 40.609 40.609 0 0 0 130.371 48.096 Q 130.371 40.6 127.302 35.556 A 17.624 17.624 0 0 0 126.245 34.009 A 13.676 13.676 0 0 0 121.634 30.059 Q 118.953 28.681 115.613 28.616 A 17.075 17.075 0 0 0 115.283 28.613 A 13.542 13.542 0 0 0 109.431 29.852 Q 106.615 31.181 104.492 33.936 A 17.656 17.656 0 0 0 101.691 39.464 Q 100.919 41.913 100.605 44.876 A 40.845 40.845 0 0 0 100.391 49.17 Q 100.391 56.353 103.114 61.221 Z M 735.194 61.221 A 17.164 17.164 0 0 0 736.548 63.281 Q 740.625 68.604 747.461 68.604 Q 754.224 68.604 758.254 63.397 A 16.377 16.377 0 0 0 758.398 63.208 Q 761.617 58.923 762.28 51.912 A 40.609 40.609 0 0 0 762.451 48.096 Q 762.451 40.6 759.382 35.556 A 17.624 17.624 0 0 0 758.325 34.009 A 13.676 13.676 0 0 0 753.714 30.059 Q 751.033 28.681 747.693 28.616 A 17.075 17.075 0 0 0 747.363 28.613 A 13.542 13.542 0 0 0 741.511 29.852 Q 738.695 31.181 736.572 33.936 A 17.656 17.656 0 0 0 733.771 39.464 Q 732.999 41.913 732.685 44.876 A 40.845 40.845 0 0 0 732.471 49.17 Q 732.471 56.353 735.194 61.221 Z M 823.915 61.221 A 17.164 17.164 0 0 0 825.269 63.281 Q 829.346 68.604 836.182 68.604 Q 842.945 68.604 846.975 63.397 A 16.377 16.377 0 0 0 847.119 63.208 Q 850.338 58.923 851 51.912 A 40.609 40.609 0 0 0 851.172 48.096 Q 851.172 40.6 848.103 35.556 A 17.624 17.624 0 0 0 847.046 34.009 A 13.676 13.676 0 0 0 842.434 30.059 Q 839.754 28.681 836.414 28.616 A 17.075 17.075 0 0 0 836.084 28.613 A 13.542 13.542 0 0 0 830.232 29.852 Q 827.416 31.181 825.293 33.936 A 17.656 17.656 0 0 0 822.491 39.464 Q 821.72 41.913 821.406 44.876 A 40.845 40.845 0 0 0 821.191 49.17 Q 821.191 56.353 823.915 61.221 Z M 618.408 11.621 L 618.408 39.502 L 635.254 39.502 A 25.697 25.697 0 0 0 639.61 39.156 Q 642.024 38.74 643.942 37.824 A 12.186 12.186 0 0 0 646.777 35.962 A 11.421 11.421 0 0 0 650.308 29.959 Q 650.766 28.092 650.781 25.876 A 22.185 22.185 0 0 0 650.781 25.732 A 16.288 16.288 0 0 0 650.182 21.203 A 12.353 12.353 0 0 0 646.777 15.576 Q 642.896 11.884 636.214 11.633 A 25.703 25.703 0 0 0 635.791 11.621 L 618.408 11.621 Z M 25 41.748 L 9.375 41.748 L 9.375 67.334 L 24.854 67.334 Q 31.396 67.334 35.181 63.94 A 11.146 11.146 0 0 0 38.753 57.262 A 16.207 16.207 0 0 0 38.965 54.59 A 16.863 16.863 0 0 0 38.21 49.314 Q 35.719 41.748 25 41.748 Z M 9.375 11.621 L 9.375 34.229 L 23.535 34.229 Q 28.795 34.229 32.252 31.981 A 11.729 11.729 0 0 0 33.374 31.152 A 10.056 10.056 0 0 0 37.016 23.93 A 14.115 14.115 0 0 0 37.061 22.803 A 15.816 15.816 0 0 0 36.759 19.606 Q 36.046 16.153 33.643 14.282 Q 30.24 11.633 23.307 11.621 A 36.595 36.595 0 0 0 23.242 11.621 L 9.375 11.621 Z M 456.982 60.205 L 456.982 49.365 L 449.902 49.365 A 42.398 42.398 0 0 0 444.26 49.707 Q 438.085 50.541 435.389 53.412 A 7.953 7.953 0 0 0 433.301 59.082 A 10.222 10.222 0 0 0 433.683 61.952 A 7.628 7.628 0 0 0 436.133 65.723 A 9.928 9.928 0 0 0 440.727 67.87 A 13.989 13.989 0 0 0 443.408 68.115 Q 447.656 68.115 451.465 65.918 Q 455.273 63.721 456.982 60.205 Z M 284.473 43.75 L 310.938 43.75 L 310.938 43.066 Q 310.648 37.968 308.752 34.569 A 12.557 12.557 0 0 0 307.227 32.397 A 10.923 10.923 0 0 0 299.955 28.706 A 15.439 15.439 0 0 0 298.242 28.613 Q 292.773 28.613 289.063 32.593 Q 285.801 36.09 284.727 42.059 A 30.452 30.452 0 0 0 284.473 43.75 Z M 536.914 43.75 L 563.379 43.75 L 563.379 43.066 Q 563.09 37.968 561.193 34.569 A 12.557 12.557 0 0 0 559.668 32.397 A 10.923 10.923 0 0 0 552.396 28.706 A 15.439 15.439 0 0 0 550.684 28.613 Q 545.215 28.613 541.504 32.593 Q 538.242 36.09 537.168 42.059 A 30.452 30.452 0 0 0 536.914 43.75 Z" vector-effect="non-scaling-stroke"/></g></svg>