<svg width="186.5" height="125.602" viewBox="0 0 186.5 125.602" xmlns="http://www.w3.org/2000/svg"><g id="svgGroup" stroke-linecap="round" fill-rule="evenodd" font-size="9pt" stroke="#000" stroke-width="0.25mm" fill="none" style="stroke:#000;stroke-width:0.25mm;fill:none"><path d="M 40.969 66.406 A 2.564 2.564 0 0 0 39.5 66.001 Q 38.6 66.001 37.7 66.101 Q 36.8 66.201 36 66.301 Q 31.1 67.001 27.1 67.001 A 27.307 27.307 0 0 1 26.768 66.999 Q 25.773 66.987 25 66.901 A 99.703 99.703 0 0 0 23.731 66.818 Q 21.731 66.701 20.2 66.701 A 1.775 1.775 0 0 0 19.8 66.748 Q 19.14 66.901 18.381 67.545 A 8.2 8.2 0 0 0 17.7 68.201 A 12.714 12.714 0 0 0 17.099 68.894 A 14.05 14.05 0 0 0 15.35 71.701 A 14.72 14.72 0 0 0 15.28 71.851 Q 14.404 73.75 14.5 75.001 A 231.116 231.116 0 0 1 15.745 80.964 A 193.785 193.785 0 0 1 17.35 90.401 A 98.157 98.157 0 0 1 17.415 90.858 A 106.247 106.247 0 0 1 18.4 105.501 A 56.187 56.187 0 0 1 18.324 108.548 Q 18.072 113.168 16.982 114.886 A 1.861 1.861 0 0 1 15.4 115.901 Q 14.05 115.901 13.341 108.177 A 116.118 116.118 0 0 1 13.1 105.051 A 359.188 359.188 0 0 1 13.089 104.882 A 328.402 328.402 0 0 1 12.4 83.901 Q 12.4 76.501 13.4 66.701 A 179.38 179.38 0 0 0 15.696 64.397 Q 41.5 38.021 41.5 15.501 A 33.422 33.422 0 0 0 41.382 12.635 Q 41.186 10.354 40.662 8.431 A 15.529 15.529 0 0 0 38.85 4.201 A 11.636 11.636 0 0 0 38.364 3.49 Q 37.155 1.855 35.572 0.987 A 8.323 8.323 0 0 0 31.5 0.001 A 11.515 11.515 0 0 0 28.788 0.324 Q 23.64 1.567 19.028 7.592 A 44.915 44.915 0 0 0 15.55 12.951 A 80.564 80.564 0 0 0 12.578 18.83 Q 9.877 24.74 7.698 31.795 A 155.054 155.054 0 0 0 4.15 45.651 Q 0 65.401 0 84.601 Q 0 105.201 3.05 115.401 Q 4.23 119.346 6.03 121.765 A 8.709 8.709 0 0 0 13.3 125.601 A 9.618 9.618 0 0 0 20.098 122.907 A 14.408 14.408 0 0 0 22.5 119.901 A 15.999 15.999 0 0 0 22.625 119.694 Q 24.98 115.726 25.692 109.364 A 53.781 53.781 0 0 0 26 103.401 A 72.868 72.868 0 0 0 25.909 99.9 Q 25.817 98.007 25.634 95.829 A 173.83 173.83 0 0 0 25.15 90.951 Q 24.3 83.401 23 77.201 A 78.893 78.893 0 0 0 24.457 77.479 Q 27.904 78.101 29.9 78.101 A 36.857 36.857 0 0 0 30.781 78.091 Q 35.718 77.973 38.538 76.507 A 6.603 6.603 0 0 0 42.3 70.201 A 9.695 9.695 0 0 0 42.219 68.892 Q 41.971 67.083 40.969 66.406 Z M 185.449 72.493 A 2.225 2.225 0 0 0 183.7 71.701 A 3.137 3.137 0 0 0 181.84 72.319 A 4.764 4.764 0 0 0 181 73.101 Q 176.3 78.701 173.5 81.101 Q 172.122 82.282 170.768 82.882 A 6.792 6.792 0 0 1 168 83.501 Q 165.9 83.501 164.55 81.001 A 8.713 8.713 0 0 1 164.042 79.852 Q 163.119 77.326 162.8 72.701 A 221.206 221.206 0 0 0 169.18 60.964 A 180.382 180.382 0 0 0 177.5 41.901 A 117.974 117.974 0 0 0 179.677 35.41 Q 181.263 30.157 182.092 25.428 A 56.471 56.471 0 0 0 183 15.701 Q 183 10.764 181.887 7.389 A 12.507 12.507 0 0 0 180.15 3.901 A 12.179 12.179 0 0 0 179.308 2.868 A 8.247 8.247 0 0 0 173 0.001 A 10.253 10.253 0 0 0 169.614 0.565 Q 164.972 2.176 161.451 8.394 A 41.239 41.239 0 0 0 158.95 13.751 A 87.772 87.772 0 0 0 157.476 17.844 Q 155.372 24.16 153.917 31.538 A 160.294 160.294 0 0 0 151.7 46.901 Q 144.3 47.701 138.35 52.051 Q 132.4 56.401 129 63.251 Q 125.6 70.101 125.6 78.101 A 22.532 22.532 0 0 0 126.046 82.696 A 15.744 15.744 0 0 0 129.55 89.951 Q 133.5 94.501 139.6 94.501 A 17.536 17.536 0 0 0 142.123 94.325 A 13.563 13.563 0 0 0 146.95 92.701 Q 150.1 90.901 154.3 85.601 Q 155.441 88.139 156.874 89.953 A 11.054 11.054 0 0 0 165.9 94.501 Q 170.7 94.501 175.6 90.951 A 44.897 44.897 0 0 0 176.962 89.924 A 48.936 48.936 0 0 0 184.6 82.401 A 6.749 6.749 0 0 0 185.503 81.052 Q 186.5 79.099 186.5 76.201 Q 186.5 74.971 186.243 74.049 A 4.376 4.376 0 0 0 185.75 72.901 A 3.165 3.165 0 0 0 185.449 72.493 Z M 89.359 64.087 A 2.055 2.055 0 0 0 87.7 63.301 A 4.008 4.008 0 0 0 87.433 63.31 Q 86.928 63.344 86.3 63.501 A 89.607 89.607 0 0 1 83.293 64.235 Q 78.676 65.273 75.1 65.501 A 27.657 27.657 0 0 0 74.753 63.14 A 21.86 21.86 0 0 0 69.65 52.551 A 14.981 14.981 0 0 0 63.238 48.218 A 17.814 17.814 0 0 0 57.4 47.301 Q 51.2 47.301 46.1 50.651 A 21.614 21.614 0 0 0 42.451 53.665 A 24.072 24.072 0 0 0 38.1 59.951 A 27.572 27.572 0 0 0 36.007 65.944 A 34.036 34.036 0 0 0 35.2 73.501 A 28.272 28.272 0 0 0 35.203 73.937 A 24.553 24.553 0 0 0 37.4 83.901 Q 39.6 88.701 43.85 91.601 A 16.069 16.069 0 0 0 49.022 93.906 A 20.705 20.705 0 0 0 54.1 94.501 A 18.053 18.053 0 0 0 60.651 93.307 A 19.822 19.822 0 0 0 66.8 89.451 A 22.918 22.918 0 0 0 71.706 83.14 A 28.513 28.513 0 0 0 74.3 76.001 A 52.306 52.306 0 0 0 78.71 75.635 A 42.89 42.89 0 0 0 87.5 73.601 A 3.589 3.589 0 0 0 89.752 71.567 Q 90.391 70.19 90.4 67.967 A 15.748 15.748 0 0 0 90.4 67.901 A 10.564 10.564 0 0 0 90.384 67.317 Q 90.344 66.591 90.201 65.967 A 5.429 5.429 0 0 0 89.7 64.601 A 3.16 3.16 0 0 0 89.359 64.087 Z M 134.459 64.087 A 2.055 2.055 0 0 0 132.8 63.301 A 4.008 4.008 0 0 0 132.533 63.31 Q 132.028 63.344 131.4 63.501 A 89.607 89.607 0 0 1 128.393 64.235 Q 123.776 65.273 120.2 65.501 A 27.657 27.657 0 0 0 119.853 63.14 A 21.86 21.86 0 0 0 114.75 52.551 A 14.981 14.981 0 0 0 108.338 48.218 A 17.814 17.814 0 0 0 102.5 47.301 Q 96.3 47.301 91.2 50.651 A 21.614 21.614 0 0 0 87.551 53.665 A 24.072 24.072 0 0 0 83.2 59.951 A 27.572 27.572 0 0 0 81.107 65.944 A 34.036 34.036 0 0 0 80.3 73.501 A 28.272 28.272 0 0 0 80.303 73.937 A 24.553 24.553 0 0 0 82.5 83.901 Q 84.7 88.701 88.95 91.601 A 16.069 16.069 0 0 0 94.122 93.906 A 20.705 20.705 0 0 0 99.2 94.501 A 18.053 18.053 0 0 0 105.751 93.307 A 19.822 19.822 0 0 0 111.9 89.451 A 22.918 22.918 0 0 0 116.806 83.14 A 28.513 28.513 0 0 0 119.4 76.001 A 52.306 52.306 0 0 0 123.81 75.635 A 42.89 42.89 0 0 0 132.6 73.601 A 3.589 3.589 0 0 0 134.852 71.567 Q 135.491 70.19 135.5 67.967 A 15.748 15.748 0 0 0 135.5 67.901 A 10.564 10.564 0 0 0 135.484 67.317 Q 135.444 66.591 135.301 65.967 A 5.429 5.429 0 0 0 134.8 64.601 A 3.16 3.16 0 0 0 134.459 64.087 Z M 171.9 9.801 A 1.501 1.501 0 0 0 170.876 10.292 Q 169.819 11.304 168.762 14.405 A 41.745 41.745 0 0 0 168.1 16.551 Q 166.2 23.301 164.85 34.201 Q 163.5 45.101 162.9 57.001 A 187.855 187.855 0 0 0 168.314 44.036 Q 173.134 31.043 173.939 21.492 A 43.99 43.99 0 0 0 174.1 17.801 Q 174.1 14.001 173.45 11.901 A 8.693 8.693 0 0 0 173.198 11.188 Q 172.704 9.979 172.084 9.824 A 0.758 0.758 0 0 0 171.9 9.801 Z M 29.4 9.901 Q 27.6 9.901 24.95 16.001 Q 22.3 22.101 19.7 32.151 A 247.056 247.056 0 0 0 16.194 47.873 A 282.802 282.802 0 0 0 15.2 53.401 A 78.429 78.429 0 0 0 23.666 41.883 A 65.753 65.753 0 0 0 27.5 34.451 A 58.244 58.244 0 0 0 30.459 26.072 Q 31.736 21.248 31.883 16.759 A 35.708 35.708 0 0 0 31.9 16.001 A 22.746 22.746 0 0 0 31.826 14.085 Q 31.47 9.901 29.4 9.901 Z M 57.5 57.901 L 57 57.901 A 7.373 7.373 0 0 0 51.482 60.346 A 11.395 11.395 0 0 0 50.35 61.751 A 13.286 13.286 0 0 0 48.61 65.48 Q 47.7 68.5 47.7 72.601 A 22.559 22.559 0 0 0 47.905 75.748 Q 48.364 78.996 49.85 81.001 A 8.845 8.845 0 0 0 51.267 82.53 A 5.53 5.53 0 0 0 54.9 83.901 A 7.088 7.088 0 0 0 59.926 81.839 A 9.727 9.727 0 0 0 60.45 81.301 A 10.806 10.806 0 0 0 62.236 78.529 Q 62.811 77.273 63.2 75.74 A 22.846 22.846 0 0 0 63.6 73.801 Q 60.5 71.701 58.85 68.301 Q 57.2 64.901 57.2 61.101 Q 57.2 59.501 57.5 57.901 Z M 102.6 57.901 L 102.1 57.901 A 7.373 7.373 0 0 0 96.582 60.346 A 11.395 11.395 0 0 0 95.45 61.751 A 13.286 13.286 0 0 0 93.71 65.48 Q 92.8 68.5 92.8 72.601 A 22.559 22.559 0 0 0 93.005 75.748 Q 93.464 78.996 94.95 81.001 A 8.845 8.845 0 0 0 96.367 82.53 A 5.53 5.53 0 0 0 100 83.901 A 7.088 7.088 0 0 0 105.026 81.839 A 9.727 9.727 0 0 0 105.55 81.301 A 10.806 10.806 0 0 0 107.336 78.529 Q 107.911 77.273 108.3 75.74 A 22.846 22.846 0 0 0 108.7 73.801 Q 105.6 71.701 103.95 68.301 Q 102.3 64.901 102.3 61.101 Q 102.3 59.501 102.6 57.901 Z M 143.1 84.401 A 5.087 5.087 0 0 0 145.238 83.911 Q 145.939 83.589 146.64 83.056 A 9.612 9.612 0 0 0 146.9 82.851 A 12.592 12.592 0 0 0 148.044 81.774 Q 149.214 80.543 150.674 78.548 A 65.559 65.559 0 0 0 151.7 77.101 Q 150.7 71.701 150.7 65.001 Q 150.7 62.601 150.9 57.201 A 15.62 15.62 0 0 0 143.884 61.757 A 21.405 21.405 0 0 0 141.75 64.551 Q 138.1 70.201 138.1 77.101 A 15.776 15.776 0 0 0 138.291 79.674 Q 139.049 84.237 142.824 84.395 A 6.571 6.571 0 0 0 143.1 84.401 Z" vector-effect="non-scaling-stroke"/></g></svg>