<svg width="487.648" height="75.98" viewBox="0 0 487.648 75.98" xmlns="http://www.w3.org/2000/svg"><g id="svgGroup" stroke-linecap="round" fill-rule="evenodd" font-size="9pt" stroke="#000" stroke-width="0.25mm" fill="none" style="stroke:#000;stroke-width:0.25mm;fill:none"><path d="M 54.786 39.6 L 54.786 65.674 A 21.051 21.051 0 0 1 46.749 72.502 A 26.271 26.271 0 0 1 44.703 73.413 A 35.134 35.134 0 0 1 37.23 75.413 Q 33.779 75.959 29.891 75.976 A 57.314 57.314 0 0 1 29.64 75.977 Q 20.948 75.977 14.21 71.899 A 26.997 26.997 0 0 1 4.138 61 A 32.488 32.488 0 0 1 3.785 60.303 Q 0.099 52.783 0.001 42.871 L 0.001 36.67 Q 0.001 20.605 7.496 11.768 Q 14.991 2.93 28.566 2.93 A 35.462 35.462 0 0 1 36.155 3.697 Q 41.342 4.833 45.243 7.651 A 21.876 21.876 0 0 1 46.485 8.618 Q 53.273 14.307 54.786 24.756 L 45.411 24.756 Q 43.112 12.45 32.049 10.875 A 24.387 24.387 0 0 0 28.614 10.645 A 21.301 21.301 0 0 0 22.675 11.426 A 15.402 15.402 0 0 0 14.332 17.261 A 22.067 22.067 0 0 0 11.178 23.616 Q 10.21 26.625 9.776 30.294 A 54.12 54.12 0 0 0 9.425 36.426 L 9.425 42.236 A 42.518 42.518 0 0 0 10.071 49.881 Q 11.305 56.625 14.894 61.255 A 17.438 17.438 0 0 0 27.556 68.214 A 22.986 22.986 0 0 0 29.689 68.311 Q 34.499 68.311 38.212 67.336 A 23.408 23.408 0 0 0 38.917 67.139 A 15.076 15.076 0 0 0 43.23 65.112 A 13.522 13.522 0 0 0 45.46 63.184 L 45.46 47.217 L 29.005 47.217 L 29.005 39.6 L 54.786 39.6 Z M 227.98 24.463 L 218.556 24.463 A 16.286 16.286 0 0 0 218.003 20.102 A 11.848 11.848 0 0 0 214.454 14.331 A 13.451 13.451 0 0 0 209.237 11.482 Q 207.185 10.867 204.719 10.704 A 27.804 27.804 0 0 0 202.882 10.645 Q 195.948 10.645 192.066 13.696 A 9.916 9.916 0 0 0 188.234 20.97 A 14.08 14.08 0 0 0 188.185 22.168 A 8.951 8.951 0 0 0 191.16 28.893 A 12.603 12.603 0 0 0 191.871 29.517 Q 194.981 32.049 201.772 34.217 A 78.891 78.891 0 0 0 204.42 35.01 Q 210.212 36.637 214.357 38.484 A 36.633 36.633 0 0 1 218.287 40.503 A 26.017 26.017 0 0 1 222.049 43.215 Q 224.162 45.064 225.52 47.204 A 16.107 16.107 0 0 1 225.709 47.51 A 16.649 16.649 0 0 1 227.89 53.684 A 21.644 21.644 0 0 1 228.126 56.934 Q 228.126 65.576 221.388 70.776 Q 214.65 75.977 203.37 75.977 Q 196.046 75.977 189.698 73.169 A 26.476 26.476 0 0 1 184.386 70.081 A 20.817 20.817 0 0 1 179.908 65.479 A 18.768 18.768 0 0 1 176.466 54.395 L 185.89 54.395 A 14.01 14.01 0 0 0 186.66 59.142 A 11.929 11.929 0 0 0 190.65 64.575 A 16.542 16.542 0 0 0 196.611 67.49 Q 199.639 68.311 203.37 68.311 A 29.197 29.197 0 0 0 207.67 68.015 Q 212.028 67.365 214.747 65.283 A 9.653 9.653 0 0 0 218.64 58.303 A 12.794 12.794 0 0 0 218.702 57.031 A 11.931 11.931 0 0 0 218.229 53.582 A 9.062 9.062 0 0 0 215.04 48.95 A 17.328 17.328 0 0 0 212.551 47.371 Q 209.767 45.886 205.349 44.42 A 97.523 97.523 0 0 0 201.759 43.311 A 76.133 76.133 0 0 1 195.177 41.112 Q 188.068 38.343 184.205 34.79 A 16.667 16.667 0 0 1 179.726 28.255 A 17.047 17.047 0 0 1 178.712 22.314 Q 178.712 13.916 185.426 8.423 A 23.562 23.562 0 0 1 195.32 3.718 A 34.301 34.301 0 0 1 202.882 2.93 A 32.365 32.365 0 0 1 210.216 3.729 A 26.353 26.353 0 0 1 215.943 5.762 A 22.784 22.784 0 0 1 221.844 9.882 A 20.38 20.38 0 0 1 224.83 13.574 A 19.977 19.977 0 0 1 227.98 24.463 Z M 313.478 75 L 304.005 75 Q 303.224 73.438 302.735 69.434 A 21.481 21.481 0 0 1 295.826 74.341 A 20.155 20.155 0 0 1 287.696 75.977 A 22.593 22.593 0 0 1 281.815 75.248 A 16.988 16.988 0 0 1 274.879 71.558 A 14.202 14.202 0 0 1 269.895 61.217 A 17.812 17.812 0 0 1 269.874 60.352 A 17.307 17.307 0 0 1 270.812 54.521 A 14.557 14.557 0 0 1 276.149 47.534 Q 282.423 42.969 293.8 42.969 L 302.589 42.969 L 302.589 38.818 A 12.803 12.803 0 0 0 302.192 35.541 A 9.196 9.196 0 0 0 299.757 31.274 Q 296.925 28.467 291.407 28.467 A 15.837 15.837 0 0 0 287.607 28.901 A 11.865 11.865 0 0 0 283.302 30.908 A 9.506 9.506 0 0 0 281.473 32.664 A 6.582 6.582 0 0 0 280.03 36.816 L 270.948 36.816 A 11.565 11.565 0 0 1 272.336 31.387 A 15.652 15.652 0 0 1 273.756 29.175 A 18.11 18.11 0 0 1 278.826 24.67 A 22.807 22.807 0 0 1 281.373 23.34 A 24.987 24.987 0 0 1 289.992 21.255 A 29.659 29.659 0 0 1 291.944 21.191 A 29.439 29.439 0 0 1 297.694 21.719 Q 302.834 22.743 306.251 25.757 A 15.51 15.51 0 0 1 311.288 34.935 A 22.2 22.2 0 0 1 311.622 38.33 L 311.622 62.646 A 46.423 46.423 0 0 0 311.822 67.1 Q 312.231 71.332 313.478 74.219 L 313.478 75 Z M 443.067 48.828 L 443.067 48.145 A 41.798 41.798 0 0 1 443.812 40.021 Q 445.138 33.328 448.829 28.589 Q 454.495 21.314 463.608 21.193 A 23.294 23.294 0 0 1 463.917 21.191 A 21.822 21.822 0 0 1 470.561 22.155 A 17.317 17.317 0 0 1 478.614 27.539 L 478.614 0 L 487.648 0 L 487.648 75 L 479.347 75 L 478.907 69.336 Q 473.487 75.977 463.819 75.977 A 17.782 17.782 0 0 1 450.256 70.116 A 23.09 23.09 0 0 1 448.854 68.457 A 26.727 26.727 0 0 1 444.136 58.387 Q 443.067 54.031 443.067 48.828 Z M 66.7 50.049 L 66.7 48.389 A 35.217 35.217 0 0 1 67.548 40.511 A 28.681 28.681 0 0 1 69.703 34.351 A 24.345 24.345 0 0 1 74.675 27.4 A 22.592 22.592 0 0 1 78.102 24.683 A 21.115 21.115 0 0 1 89.796 21.191 A 25.048 25.048 0 0 1 96.608 22.068 A 18.214 18.214 0 0 1 105.812 27.979 Q 111.525 34.766 111.525 47.412 L 111.525 51.172 L 75.733 51.172 A 23.461 23.461 0 0 0 76.523 56.817 A 16.845 16.845 0 0 0 80.299 63.794 A 14.244 14.244 0 0 0 90.677 68.589 A 18.354 18.354 0 0 0 91.407 68.604 A 19.593 19.593 0 0 0 95.054 68.281 Q 97.376 67.841 99.249 66.801 A 12.287 12.287 0 0 0 99.513 66.65 Q 102.833 64.697 105.323 61.475 L 110.841 65.771 A 21.402 21.402 0 0 1 95.288 75.675 A 30.546 30.546 0 0 1 90.919 75.977 A 26.605 26.605 0 0 1 82.572 74.722 A 21.937 21.937 0 0 1 73.439 68.921 A 23.728 23.728 0 0 1 67.392 57.13 A 34.476 34.476 0 0 1 66.7 50.049 Z M 389.991 50.049 L 389.991 48.389 A 35.217 35.217 0 0 1 390.839 40.511 A 28.681 28.681 0 0 1 392.994 34.351 A 24.345 24.345 0 0 1 397.966 27.4 A 22.592 22.592 0 0 1 401.393 24.683 A 21.115 21.115 0 0 1 413.087 21.191 A 25.048 25.048 0 0 1 419.899 22.068 A 18.214 18.214 0 0 1 429.103 27.979 Q 434.816 34.766 434.816 47.412 L 434.816 51.172 L 399.025 51.172 A 23.461 23.461 0 0 0 399.814 56.817 A 16.845 16.845 0 0 0 403.59 63.794 A 14.244 14.244 0 0 0 413.968 68.589 A 18.354 18.354 0 0 0 414.698 68.604 A 19.593 19.593 0 0 0 418.345 68.281 Q 420.667 67.841 422.54 66.801 A 12.287 12.287 0 0 0 422.804 66.65 Q 426.124 64.697 428.614 61.475 L 434.132 65.771 A 21.402 21.402 0 0 1 418.579 75.675 A 30.546 30.546 0 0 1 414.21 75.977 A 26.605 26.605 0 0 1 405.863 74.722 A 21.937 21.937 0 0 1 396.73 68.921 A 23.728 23.728 0 0 1 390.683 57.13 A 34.476 34.476 0 0 1 389.991 50.049 Z M 125.196 9.375 L 134.23 9.375 L 134.23 22.168 L 144.093 22.168 L 144.093 29.15 L 134.23 29.15 L 134.23 61.914 A 12.204 12.204 0 0 0 134.346 63.659 Q 134.475 64.549 134.747 65.268 A 4.894 4.894 0 0 0 135.548 66.675 A 3.9 3.9 0 0 0 137.158 67.801 Q 137.817 68.06 138.646 68.173 A 10.308 10.308 0 0 0 140.04 68.262 A 11.617 11.617 0 0 0 141.124 68.205 Q 142.265 68.097 143.818 67.784 A 44.686 44.686 0 0 0 144.337 67.676 L 144.337 75 A 27.369 27.369 0 0 1 139.528 75.881 A 23.968 23.968 0 0 1 137.403 75.977 Q 132.436 75.977 129.473 73.511 A 9.511 9.511 0 0 1 128.273 72.314 A 12.049 12.049 0 0 1 126.027 68.085 Q 125.196 65.415 125.196 61.914 L 125.196 29.15 L 115.577 29.15 L 115.577 22.168 L 125.196 22.168 L 125.196 9.375 Z M 241.944 9.375 L 250.978 9.375 L 250.978 22.168 L 260.841 22.168 L 260.841 29.15 L 250.978 29.15 L 250.978 61.914 A 12.204 12.204 0 0 0 251.094 63.659 Q 251.223 64.549 251.495 65.268 A 4.894 4.894 0 0 0 252.296 66.675 A 3.9 3.9 0 0 0 253.906 67.801 Q 254.565 68.06 255.394 68.173 A 10.308 10.308 0 0 0 256.788 68.262 A 11.617 11.617 0 0 0 257.872 68.205 Q 259.013 68.097 260.566 67.784 A 44.686 44.686 0 0 0 261.085 67.676 L 261.085 75 A 27.369 27.369 0 0 1 256.276 75.881 A 23.968 23.968 0 0 1 254.151 75.977 Q 249.184 75.977 246.221 73.511 A 9.511 9.511 0 0 1 245.021 72.314 A 12.049 12.049 0 0 1 242.775 68.085 Q 241.944 65.415 241.944 61.914 L 241.944 29.15 L 232.325 29.15 L 232.325 22.168 L 241.944 22.168 L 241.944 9.375 Z M 362.843 9.375 L 371.876 9.375 L 371.876 22.168 L 381.739 22.168 L 381.739 29.15 L 371.876 29.15 L 371.876 61.914 A 12.204 12.204 0 0 0 371.992 63.659 Q 372.121 64.549 372.393 65.268 A 4.894 4.894 0 0 0 373.194 66.675 A 3.9 3.9 0 0 0 374.804 67.801 Q 375.463 68.06 376.293 68.173 A 10.308 10.308 0 0 0 377.687 68.262 A 11.617 11.617 0 0 0 378.77 68.205 Q 379.911 68.097 381.464 67.784 A 44.686 44.686 0 0 0 381.983 67.676 L 381.983 75 A 27.369 27.369 0 0 1 377.175 75.881 A 23.968 23.968 0 0 1 375.05 75.977 Q 370.082 75.977 367.119 73.511 A 9.511 9.511 0 0 1 365.919 72.314 A 12.049 12.049 0 0 1 363.673 68.085 Q 362.843 65.415 362.843 61.914 L 362.843 29.15 L 353.224 29.15 L 353.224 22.168 L 362.843 22.168 L 362.843 9.375 Z M 351.319 21.875 L 351.319 30.273 A 25.009 25.009 0 0 0 348.622 29.98 A 30.912 30.912 0 0 0 346.876 29.932 Q 338.234 29.932 334.994 37.09 A 16.051 16.051 0 0 0 334.816 37.5 L 334.816 75 L 325.782 75 L 325.782 22.168 L 334.571 22.168 L 334.718 28.271 A 16.014 16.014 0 0 1 338.572 23.957 Q 342.219 21.191 347.316 21.191 A 16.507 16.507 0 0 1 348.698 21.245 Q 350.13 21.366 351.06 21.756 A 4.272 4.272 0 0 1 351.319 21.875 Z M 478.614 60.596 L 478.614 36.328 Q 474.562 28.857 466.163 28.857 A 13.759 13.759 0 0 0 461.422 29.64 A 11.862 11.862 0 0 0 455.812 33.984 Q 453.173 37.63 452.411 43.769 A 43.942 43.942 0 0 0 452.101 49.17 Q 452.101 58.154 455.812 63.232 A 11.777 11.777 0 0 0 464.281 68.21 A 15.451 15.451 0 0 0 466.066 68.311 A 14.894 14.894 0 0 0 471.643 67.314 Q 475.318 65.843 477.687 62.201 A 18.007 18.007 0 0 0 478.614 60.596 Z M 302.589 60.205 L 302.589 49.365 L 295.509 49.365 A 42.398 42.398 0 0 0 289.867 49.707 Q 283.691 50.541 280.996 53.412 A 7.953 7.953 0 0 0 278.907 59.082 A 10.222 10.222 0 0 0 279.289 61.952 A 7.628 7.628 0 0 0 281.739 65.723 A 9.928 9.928 0 0 0 286.334 67.87 A 13.989 13.989 0 0 0 289.015 68.115 Q 293.263 68.115 297.071 65.918 Q 300.88 63.721 302.589 60.205 Z M 76.026 43.75 L 102.491 43.75 L 102.491 43.066 Q 102.202 37.968 100.306 34.569 A 12.557 12.557 0 0 0 98.78 32.397 A 10.923 10.923 0 0 0 91.509 28.706 A 15.439 15.439 0 0 0 89.796 28.613 Q 84.327 28.613 80.616 32.593 Q 77.355 36.09 76.281 42.059 A 30.452 30.452 0 0 0 76.026 43.75 Z M 399.317 43.75 L 425.782 43.75 L 425.782 43.066 Q 425.493 37.968 423.597 34.569 A 12.557 12.557 0 0 0 422.071 32.397 A 10.923 10.923 0 0 0 414.8 28.706 A 15.439 15.439 0 0 0 413.087 28.613 Q 407.618 28.613 403.907 32.593 Q 400.646 36.09 399.572 42.059 A 30.452 30.452 0 0 0 399.317 43.75 Z" vector-effect="non-scaling-stroke"/></g></svg>