<svg width="1241.31" height="92.872" viewBox="0 0 1241.31 92.872" xmlns="http://www.w3.org/2000/svg"><g id="svgGroup" stroke-linecap="round" fill-rule="evenodd" font-size="9pt" stroke="#000" stroke-width="0.25mm" fill="none" style="stroke:#000;stroke-width:0.25mm;fill:none"><path d="M 54.786 36.671 L 54.786 62.745 A 21.051 21.051 0 0 1 46.749 69.573 A 26.271 26.271 0 0 1 44.703 70.484 A 35.134 35.134 0 0 1 37.23 72.484 Q 33.779 73.03 29.891 73.047 A 57.314 57.314 0 0 1 29.64 73.048 Q 20.948 73.048 14.21 68.971 A 26.997 26.997 0 0 1 4.138 58.071 A 32.488 32.488 0 0 1 3.785 57.374 Q 0.099 49.854 0.001 39.942 L 0.001 33.741 Q 0.001 17.677 7.496 8.839 Q 14.991 0.001 28.566 0.001 A 35.462 35.462 0 0 1 36.155 0.768 Q 41.342 1.904 45.243 4.722 A 21.876 21.876 0 0 1 46.485 5.689 Q 53.273 11.378 54.786 21.827 L 45.411 21.827 Q 43.112 9.521 32.049 7.947 A 24.387 24.387 0 0 0 28.614 7.716 A 21.301 21.301 0 0 0 22.675 8.498 A 15.402 15.402 0 0 0 14.332 14.332 A 22.067 22.067 0 0 0 11.178 20.687 Q 10.21 23.696 9.776 27.365 A 54.12 54.12 0 0 0 9.425 33.497 L 9.425 39.308 A 42.518 42.518 0 0 0 10.071 46.952 Q 11.305 53.696 14.894 58.326 A 17.438 17.438 0 0 0 27.556 65.285 A 22.986 22.986 0 0 0 29.689 65.382 Q 34.499 65.382 38.212 64.407 A 23.408 23.408 0 0 0 38.917 64.21 A 15.076 15.076 0 0 0 43.23 62.183 A 13.522 13.522 0 0 0 45.46 60.255 L 45.46 44.288 L 29.005 44.288 L 29.005 36.671 L 54.786 36.671 Z M 877.54 25.099 L 877.98 19.239 L 886.232 19.239 L 886.232 70.802 A 27.894 27.894 0 0 1 885.446 77.61 A 19.315 19.315 0 0 1 880.152 86.964 Q 874.073 92.872 863.819 92.872 Q 858.107 92.872 852.638 90.431 A 22.254 22.254 0 0 1 848.079 87.745 A 17.364 17.364 0 0 1 844.288 83.741 L 848.976 78.321 A 20.991 20.991 0 0 0 853.804 82.765 A 16.819 16.819 0 0 0 863.185 85.499 A 18.83 18.83 0 0 0 867.373 85.06 Q 870.355 84.38 872.512 82.645 A 11.523 11.523 0 0 0 873.463 81.788 A 12.109 12.109 0 0 0 876.541 76.314 Q 877.15 74.076 877.15 71.339 L 877.15 66.798 A 17.785 17.785 0 0 1 865.46 72.863 A 25.326 25.326 0 0 1 862.355 73.048 Q 853.077 73.048 847.34 65.577 A 25.734 25.734 0 0 1 843.082 56.91 Q 842.065 53.371 841.747 49.17 A 52.428 52.428 0 0 1 841.603 45.216 A 43.443 43.443 0 0 1 842.278 37.32 Q 843.566 30.353 847.316 25.562 A 18.074 18.074 0 0 1 860.435 18.35 A 22.866 22.866 0 0 1 862.452 18.263 A 21.899 21.899 0 0 1 869.106 19.224 A 17.217 17.217 0 0 1 877.54 25.099 Z M 933.644 25.099 L 934.083 19.239 L 942.335 19.239 L 942.335 70.802 A 27.894 27.894 0 0 1 941.55 77.61 A 19.315 19.315 0 0 1 936.256 86.964 Q 930.177 92.872 919.923 92.872 Q 914.21 92.872 908.741 90.431 A 22.254 22.254 0 0 1 904.183 87.745 A 17.364 17.364 0 0 1 900.392 83.741 L 905.079 78.321 A 20.991 20.991 0 0 0 909.907 82.765 A 16.819 16.819 0 0 0 919.288 85.499 A 18.83 18.83 0 0 0 923.477 85.06 Q 926.459 84.38 928.615 82.645 A 11.523 11.523 0 0 0 929.566 81.788 A 12.109 12.109 0 0 0 932.645 76.314 Q 933.253 74.076 933.253 71.339 L 933.253 66.798 A 17.785 17.785 0 0 1 921.564 72.863 A 25.326 25.326 0 0 1 918.458 73.048 Q 909.181 73.048 903.443 65.577 A 25.734 25.734 0 0 1 899.186 56.91 Q 898.168 53.371 897.851 49.17 A 52.428 52.428 0 0 1 897.706 45.216 A 43.443 43.443 0 0 1 898.381 37.32 Q 899.67 30.353 903.419 25.562 A 18.074 18.074 0 0 1 916.539 18.35 A 22.866 22.866 0 0 1 918.556 18.263 A 21.899 21.899 0 0 1 925.209 19.224 A 17.217 17.217 0 0 1 933.644 25.099 Z M 383.741 34.767 L 374.659 34.767 Q 374.659 31.056 371.51 28.37 Q 368.36 25.684 363.575 25.684 A 18.294 18.294 0 0 0 360.57 25.916 Q 358.973 26.182 357.682 26.756 A 8.839 8.839 0 0 0 355.86 27.833 A 7.251 7.251 0 0 0 353.916 30.04 Q 353.103 31.498 353.078 33.33 A 8.552 8.552 0 0 0 353.077 33.448 A 6.531 6.531 0 0 0 353.411 35.591 A 5.329 5.329 0 0 0 355.665 38.38 A 12.15 12.15 0 0 0 357.335 39.251 Q 359.159 40.051 361.999 40.816 A 73.127 73.127 0 0 0 365.016 41.554 A 70.196 70.196 0 0 1 369.545 42.717 Q 373.288 43.822 375.978 45.167 Q 380.177 47.267 382.203 50.221 A 11.381 11.381 0 0 1 384.006 54.744 A 15.424 15.424 0 0 1 384.23 57.423 A 14.224 14.224 0 0 1 382.988 63.438 Q 381.577 66.503 378.566 68.775 Q 373.206 72.818 364.829 73.035 A 37.071 37.071 0 0 1 363.868 73.048 A 30.507 30.507 0 0 1 357.931 72.495 A 23.595 23.595 0 0 1 352.638 70.802 A 19.676 19.676 0 0 1 347.817 67.711 A 17.116 17.116 0 0 1 344.996 64.527 A 15.123 15.123 0 0 1 342.237 55.811 L 351.271 55.811 A 10.358 10.358 0 0 0 352.087 59.425 A 9.193 9.193 0 0 0 354.908 63.014 A 11.912 11.912 0 0 0 359.378 65.156 Q 361.411 65.675 363.868 65.675 A 20.695 20.695 0 0 0 367.154 65.429 Q 368.948 65.141 370.41 64.511 A 10.452 10.452 0 0 0 372.096 63.6 A 7.656 7.656 0 0 0 373.924 61.928 A 6.156 6.156 0 0 0 375.196 58.058 A 7.761 7.761 0 0 0 374.792 55.493 A 6.452 6.452 0 0 0 372.438 52.369 A 11.672 11.672 0 0 0 370.561 51.274 Q 368.463 50.272 365.186 49.431 A 59.907 59.907 0 0 0 362.818 48.878 Q 358.316 47.917 355.034 46.703 A 29.103 29.103 0 0 1 351.93 45.362 A 20.571 20.571 0 0 1 349.204 43.714 Q 347.748 42.661 346.716 41.451 A 11.305 11.305 0 0 1 345.973 40.479 A 11.071 11.071 0 0 1 344.165 35.627 A 14.346 14.346 0 0 1 344.044 33.741 A 13.405 13.405 0 0 1 348.478 23.688 A 18.819 18.819 0 0 1 349.537 22.755 Q 355.03 18.263 363.575 18.263 A 28.433 28.433 0 0 1 369.836 18.915 A 19.527 19.527 0 0 1 378.15 22.901 A 15.379 15.379 0 0 1 382.344 28.187 A 15.243 15.243 0 0 1 383.741 34.767 Z M 776.368 34.767 L 767.286 34.767 Q 767.286 31.056 764.137 28.37 Q 760.987 25.684 756.202 25.684 A 18.294 18.294 0 0 0 753.197 25.916 Q 751.6 26.182 750.309 26.756 A 8.839 8.839 0 0 0 748.487 27.833 A 7.251 7.251 0 0 0 746.543 30.04 Q 745.73 31.498 745.705 33.33 A 8.552 8.552 0 0 0 745.704 33.448 A 6.531 6.531 0 0 0 746.038 35.591 A 5.329 5.329 0 0 0 748.292 38.38 A 12.15 12.15 0 0 0 749.961 39.251 Q 751.786 40.051 754.626 40.816 A 73.127 73.127 0 0 0 757.643 41.554 A 70.196 70.196 0 0 1 762.172 42.717 Q 765.914 43.822 768.605 45.167 Q 772.804 47.267 774.83 50.221 A 11.381 11.381 0 0 1 776.633 54.744 A 15.424 15.424 0 0 1 776.857 57.423 A 14.224 14.224 0 0 1 775.615 63.438 Q 774.204 66.503 771.192 68.775 Q 765.833 72.818 757.456 73.035 A 37.071 37.071 0 0 1 756.495 73.048 A 30.507 30.507 0 0 1 750.558 72.495 A 23.595 23.595 0 0 1 745.265 70.802 A 19.676 19.676 0 0 1 740.444 67.711 A 17.116 17.116 0 0 1 737.623 64.527 A 15.123 15.123 0 0 1 734.864 55.811 L 743.898 55.811 A 10.358 10.358 0 0 0 744.714 59.425 A 9.193 9.193 0 0 0 747.535 63.014 A 11.912 11.912 0 0 0 752.004 65.156 Q 754.038 65.675 756.495 65.675 A 20.695 20.695 0 0 0 759.781 65.429 Q 761.575 65.141 763.037 64.511 A 10.452 10.452 0 0 0 764.723 63.6 A 7.656 7.656 0 0 0 766.551 61.928 A 6.156 6.156 0 0 0 767.823 58.058 A 7.761 7.761 0 0 0 767.419 55.493 A 6.452 6.452 0 0 0 765.065 52.369 A 11.672 11.672 0 0 0 763.188 51.274 Q 761.09 50.272 757.813 49.431 A 59.907 59.907 0 0 0 755.445 48.878 Q 750.943 47.917 747.661 46.703 A 29.103 29.103 0 0 1 744.557 45.362 A 20.571 20.571 0 0 1 741.831 43.714 Q 740.375 42.661 739.343 41.451 A 11.305 11.305 0 0 1 738.6 40.479 A 11.071 11.071 0 0 1 736.792 35.627 A 14.346 14.346 0 0 1 736.671 33.741 A 13.405 13.405 0 0 1 741.105 23.688 A 18.819 18.819 0 0 1 742.164 22.755 Q 747.657 18.263 756.202 18.263 A 28.433 28.433 0 0 1 762.463 18.915 A 19.527 19.527 0 0 1 770.777 22.901 A 15.379 15.379 0 0 1 774.971 28.187 A 15.243 15.243 0 0 1 776.368 34.767 Z M 1048.243 34.767 L 1039.161 34.767 Q 1039.161 31.056 1036.012 28.37 Q 1032.862 25.684 1028.077 25.684 A 18.294 18.294 0 0 0 1025.072 25.916 Q 1023.475 26.182 1022.184 26.756 A 8.839 8.839 0 0 0 1020.362 27.833 A 7.251 7.251 0 0 0 1018.418 30.04 Q 1017.605 31.498 1017.58 33.33 A 8.552 8.552 0 0 0 1017.579 33.448 A 6.531 6.531 0 0 0 1017.913 35.591 A 5.329 5.329 0 0 0 1020.167 38.38 A 12.15 12.15 0 0 0 1021.836 39.251 Q 1023.661 40.051 1026.501 40.816 A 73.127 73.127 0 0 0 1029.518 41.554 A 70.196 70.196 0 0 1 1034.047 42.717 Q 1037.789 43.822 1040.48 45.167 Q 1044.679 47.267 1046.705 50.221 A 11.381 11.381 0 0 1 1048.508 54.744 A 15.424 15.424 0 0 1 1048.732 57.423 A 14.224 14.224 0 0 1 1047.49 63.438 Q 1046.079 66.503 1043.067 68.775 Q 1037.708 72.818 1029.331 73.035 A 37.071 37.071 0 0 1 1028.37 73.048 A 30.507 30.507 0 0 1 1022.433 72.495 A 23.595 23.595 0 0 1 1017.14 70.802 A 19.676 19.676 0 0 1 1012.319 67.711 A 17.116 17.116 0 0 1 1009.498 64.527 A 15.123 15.123 0 0 1 1006.739 55.811 L 1015.773 55.811 A 10.358 10.358 0 0 0 1016.589 59.425 A 9.193 9.193 0 0 0 1019.41 63.014 A 11.912 11.912 0 0 0 1023.879 65.156 Q 1025.913 65.675 1028.37 65.675 A 20.695 20.695 0 0 0 1031.656 65.429 Q 1033.45 65.141 1034.912 64.511 A 10.452 10.452 0 0 0 1036.598 63.6 A 7.656 7.656 0 0 0 1038.426 61.928 A 6.156 6.156 0 0 0 1039.698 58.058 A 7.761 7.761 0 0 0 1039.294 55.493 A 6.452 6.452 0 0 0 1036.94 52.369 A 11.672 11.672 0 0 0 1035.063 51.274 Q 1032.965 50.272 1029.688 49.431 A 59.907 59.907 0 0 0 1027.32 48.878 Q 1022.818 47.917 1019.536 46.703 A 29.103 29.103 0 0 1 1016.432 45.362 A 20.571 20.571 0 0 1 1013.706 43.714 Q 1012.25 42.661 1011.218 41.451 A 11.305 11.305 0 0 1 1010.475 40.479 A 11.071 11.071 0 0 1 1008.667 35.627 A 14.346 14.346 0 0 1 1008.546 33.741 A 13.405 13.405 0 0 1 1012.98 23.688 A 18.819 18.819 0 0 1 1014.039 22.755 Q 1019.532 18.263 1028.077 18.263 A 28.433 28.433 0 0 1 1034.338 18.915 A 19.527 19.527 0 0 1 1042.652 22.901 A 15.379 15.379 0 0 1 1046.846 28.187 A 15.243 15.243 0 0 1 1048.243 34.767 Z M 624.464 19.239 L 633.009 19.239 L 633.302 25.88 A 20.007 20.007 0 0 1 640.223 20.197 Q 644.077 18.323 648.816 18.264 A 24.818 24.818 0 0 1 649.122 18.263 A 21.166 21.166 0 0 1 656.161 19.336 Q 665.905 22.765 666.017 37.159 L 666.017 72.071 L 656.983 72.071 L 656.983 37.11 Q 656.935 31.397 654.371 28.663 Q 652.303 26.457 648.377 26.031 A 18.441 18.441 0 0 0 646.388 25.929 A 13.921 13.921 0 0 0 641.784 26.67 A 12.481 12.481 0 0 0 638.673 28.272 A 15.915 15.915 0 0 0 633.497 34.425 L 633.497 72.071 L 624.464 72.071 L 624.464 19.239 Z M 1174.464 19.239 L 1183.009 19.239 L 1183.302 25.88 A 20.007 20.007 0 0 1 1190.223 20.197 Q 1194.077 18.323 1198.816 18.264 A 24.818 24.818 0 0 1 1199.122 18.263 A 21.166 21.166 0 0 1 1206.161 19.336 Q 1215.905 22.765 1216.017 37.159 L 1216.017 72.071 L 1206.983 72.071 L 1206.983 37.11 Q 1206.935 31.397 1204.371 28.663 Q 1202.303 26.457 1198.377 26.031 A 18.441 18.441 0 0 0 1196.388 25.929 A 13.921 13.921 0 0 0 1191.784 26.67 A 12.481 12.481 0 0 0 1188.673 28.272 A 15.915 15.915 0 0 0 1183.497 34.425 L 1183.497 72.071 L 1174.464 72.071 L 1174.464 19.239 Z M 515.87 72.071 L 515.675 66.847 Q 510.457 72.983 500.41 73.047 A 33.325 33.325 0 0 1 500.196 73.048 A 23.183 23.183 0 0 1 495.087 72.519 Q 490.299 71.438 487.33 68.141 A 15.666 15.666 0 0 1 484.185 62.616 Q 483.385 60.26 483.069 57.384 A 36.21 36.21 0 0 1 482.862 53.614 L 482.862 19.239 L 491.896 19.239 L 491.896 53.37 Q 491.896 65.382 501.661 65.382 A 21.414 21.414 0 0 0 506.671 64.837 Q 512.921 63.332 515.431 57.667 L 515.431 19.239 L 524.464 19.239 L 524.464 72.071 L 515.87 72.071 Z M 821.437 72.071 L 821.241 66.847 Q 816.023 72.983 805.977 73.047 A 33.325 33.325 0 0 1 805.763 73.048 A 23.183 23.183 0 0 1 800.653 72.519 Q 795.866 71.438 792.897 68.141 A 15.666 15.666 0 0 1 789.751 62.616 Q 788.951 60.26 788.635 57.384 A 36.21 36.21 0 0 1 788.429 53.614 L 788.429 19.239 L 797.462 19.239 L 797.462 53.37 Q 797.462 65.382 807.228 65.382 A 21.414 21.414 0 0 0 812.238 64.837 Q 818.487 63.332 820.997 57.667 L 820.997 19.239 L 830.03 19.239 L 830.03 72.071 L 821.437 72.071 Z M 221.485 72.071 L 212.013 72.071 Q 211.232 70.509 210.743 66.505 A 21.481 21.481 0 0 1 203.834 71.412 A 20.155 20.155 0 0 1 195.704 73.048 A 22.593 22.593 0 0 1 189.823 72.319 A 16.988 16.988 0 0 1 182.887 68.629 A 14.202 14.202 0 0 1 177.903 58.288 A 17.812 17.812 0 0 1 177.882 57.423 A 17.307 17.307 0 0 1 178.82 51.592 A 14.557 14.557 0 0 1 184.156 44.605 Q 190.431 40.04 201.808 40.04 L 210.597 40.04 L 210.597 35.89 A 12.803 12.803 0 0 0 210.2 32.612 A 9.196 9.196 0 0 0 207.765 28.346 Q 204.933 25.538 199.415 25.538 A 15.837 15.837 0 0 0 195.615 25.973 A 11.865 11.865 0 0 0 191.31 27.979 A 9.506 9.506 0 0 0 189.481 29.735 A 6.582 6.582 0 0 0 188.038 33.888 L 178.956 33.888 A 11.565 11.565 0 0 1 180.344 28.459 A 15.652 15.652 0 0 1 181.764 26.246 A 18.11 18.11 0 0 1 186.834 21.741 A 22.807 22.807 0 0 1 189.381 20.411 A 24.987 24.987 0 0 1 198 18.326 A 29.659 29.659 0 0 1 199.952 18.263 A 29.439 29.439 0 0 1 205.702 18.79 Q 210.842 19.814 214.259 22.828 A 15.51 15.51 0 0 1 219.296 32.006 A 22.2 22.2 0 0 1 219.63 35.401 L 219.63 59.718 A 46.423 46.423 0 0 0 219.83 64.171 Q 220.239 68.403 221.485 71.29 L 221.485 72.071 Z M 470.753 72.071 L 461.28 72.071 Q 460.499 70.509 460.011 66.505 A 21.481 21.481 0 0 1 453.102 71.412 A 20.155 20.155 0 0 1 444.972 73.048 A 22.593 22.593 0 0 1 439.091 72.319 A 16.988 16.988 0 0 1 432.154 68.629 A 14.202 14.202 0 0 1 427.17 58.288 A 17.812 17.812 0 0 1 427.15 57.423 A 17.307 17.307 0 0 1 428.088 51.592 A 14.557 14.557 0 0 1 433.424 44.605 Q 439.698 40.04 451.075 40.04 L 459.864 40.04 L 459.864 35.89 A 12.803 12.803 0 0 0 459.467 32.612 A 9.196 9.196 0 0 0 457.032 28.346 Q 454.2 25.538 448.683 25.538 A 15.837 15.837 0 0 0 444.882 25.973 A 11.865 11.865 0 0 0 440.577 27.979 A 9.506 9.506 0 0 0 438.748 29.735 A 6.582 6.582 0 0 0 437.306 33.888 L 428.224 33.888 A 11.565 11.565 0 0 1 429.612 28.459 A 15.652 15.652 0 0 1 431.031 26.246 A 18.11 18.11 0 0 1 436.102 21.741 A 22.807 22.807 0 0 1 438.649 20.411 A 24.987 24.987 0 0 1 447.267 18.326 A 29.659 29.659 0 0 1 449.22 18.263 A 29.439 29.439 0 0 1 454.969 18.79 Q 460.11 19.814 463.526 22.828 A 15.51 15.51 0 0 1 468.564 32.006 A 22.2 22.2 0 0 1 468.898 35.401 L 468.898 59.718 A 46.423 46.423 0 0 0 469.097 64.171 Q 469.506 68.403 470.753 71.29 L 470.753 72.071 Z M 612.159 72.071 L 602.687 72.071 Q 601.905 70.509 601.417 66.505 A 21.481 21.481 0 0 1 594.508 71.412 A 20.155 20.155 0 0 1 586.378 73.048 A 22.593 22.593 0 0 1 580.497 72.319 A 16.988 16.988 0 0 1 573.561 68.629 A 14.202 14.202 0 0 1 568.577 58.288 A 17.812 17.812 0 0 1 568.556 57.423 A 17.307 17.307 0 0 1 569.494 51.592 A 14.557 14.557 0 0 1 574.83 44.605 Q 581.105 40.04 592.482 40.04 L 601.271 40.04 L 601.271 35.89 A 12.803 12.803 0 0 0 600.873 32.612 A 9.196 9.196 0 0 0 598.439 28.346 Q 595.607 25.538 590.089 25.538 A 15.837 15.837 0 0 0 586.288 25.973 A 11.865 11.865 0 0 0 581.983 27.979 A 9.506 9.506 0 0 0 580.155 29.735 A 6.582 6.582 0 0 0 578.712 33.888 L 569.63 33.888 A 11.565 11.565 0 0 1 571.018 28.459 A 15.652 15.652 0 0 1 572.438 26.246 A 18.11 18.11 0 0 1 577.508 21.741 A 22.807 22.807 0 0 1 580.055 20.411 A 24.987 24.987 0 0 1 588.674 18.326 A 29.659 29.659 0 0 1 590.626 18.263 A 29.439 29.439 0 0 1 596.375 18.79 Q 601.516 19.814 604.933 22.828 A 15.51 15.51 0 0 1 609.97 32.006 A 22.2 22.2 0 0 1 610.304 35.401 L 610.304 59.718 A 46.423 46.423 0 0 0 610.504 64.171 Q 610.913 68.403 612.159 71.29 L 612.159 72.071 Z M 66.7 47.12 L 66.7 45.46 A 35.217 35.217 0 0 1 67.548 37.583 A 28.681 28.681 0 0 1 69.703 31.422 A 24.345 24.345 0 0 1 74.675 24.471 A 22.592 22.592 0 0 1 78.102 21.754 A 21.115 21.115 0 0 1 89.796 18.263 A 25.048 25.048 0 0 1 96.608 19.139 A 18.214 18.214 0 0 1 105.812 25.05 Q 111.525 31.837 111.525 44.483 L 111.525 48.243 L 75.733 48.243 A 23.461 23.461 0 0 0 76.523 53.888 A 16.845 16.845 0 0 0 80.299 60.865 A 14.244 14.244 0 0 0 90.677 65.66 A 18.354 18.354 0 0 0 91.407 65.675 A 19.593 19.593 0 0 0 95.054 65.352 Q 97.376 64.913 99.249 63.873 A 12.287 12.287 0 0 0 99.513 63.722 Q 102.833 61.768 105.323 58.546 L 110.841 62.843 A 21.402 21.402 0 0 1 95.288 72.746 A 30.546 30.546 0 0 1 90.919 73.048 A 26.605 26.605 0 0 1 82.572 71.793 A 21.937 21.937 0 0 1 73.439 65.992 A 23.728 23.728 0 0 1 67.392 54.201 A 34.476 34.476 0 0 1 66.7 47.12 Z M 289.161 47.12 L 289.161 45.46 A 35.217 35.217 0 0 1 290.009 37.583 A 28.681 28.681 0 0 1 292.164 31.422 A 24.345 24.345 0 0 1 297.136 24.471 A 22.592 22.592 0 0 1 300.563 21.754 A 21.115 21.115 0 0 1 312.257 18.263 A 25.048 25.048 0 0 1 319.069 19.139 A 18.214 18.214 0 0 1 328.273 25.05 Q 333.985 31.837 333.985 44.483 L 333.985 48.243 L 298.194 48.243 A 23.461 23.461 0 0 0 298.984 53.888 A 16.845 16.845 0 0 0 302.76 60.865 A 14.244 14.244 0 0 0 313.138 65.66 A 18.354 18.354 0 0 0 313.868 65.675 A 19.593 19.593 0 0 0 317.514 65.352 Q 319.837 64.913 321.71 63.873 A 12.287 12.287 0 0 0 321.974 63.722 Q 325.294 61.768 327.784 58.546 L 333.302 62.843 A 21.402 21.402 0 0 1 317.749 72.746 A 30.546 30.546 0 0 1 313.38 73.048 A 26.605 26.605 0 0 1 305.033 71.793 A 21.937 21.937 0 0 1 295.9 65.992 A 23.728 23.728 0 0 1 289.853 54.201 A 34.476 34.476 0 0 1 289.161 47.12 Z M 953.663 47.12 L 953.663 45.46 A 35.217 35.217 0 0 1 954.511 37.583 A 28.681 28.681 0 0 1 956.666 31.422 A 24.345 24.345 0 0 1 961.638 24.471 A 22.592 22.592 0 0 1 965.065 21.754 A 21.115 21.115 0 0 1 976.759 18.263 A 25.048 25.048 0 0 1 983.571 19.139 A 18.214 18.214 0 0 1 992.775 25.05 Q 998.487 31.837 998.487 44.483 L 998.487 48.243 L 962.696 48.243 A 23.461 23.461 0 0 0 963.486 53.888 A 16.845 16.845 0 0 0 967.262 60.865 A 14.244 14.244 0 0 0 977.64 65.66 A 18.354 18.354 0 0 0 978.37 65.675 A 19.593 19.593 0 0 0 982.016 65.352 Q 984.339 64.913 986.212 63.873 A 12.287 12.287 0 0 0 986.476 63.722 Q 989.796 61.768 992.286 58.546 L 997.804 62.843 A 21.402 21.402 0 0 1 982.251 72.746 A 30.546 30.546 0 0 1 977.882 73.048 A 26.605 26.605 0 0 1 969.535 71.793 A 21.937 21.937 0 0 1 960.401 65.992 A 23.728 23.728 0 0 1 954.355 54.201 A 34.476 34.476 0 0 1 953.663 47.12 Z M 125.196 6.446 L 134.23 6.446 L 134.23 19.239 L 144.093 19.239 L 144.093 26.222 L 134.23 26.222 L 134.23 58.985 A 12.204 12.204 0 0 0 134.346 60.73 Q 134.475 61.621 134.747 62.339 A 4.894 4.894 0 0 0 135.548 63.746 A 3.9 3.9 0 0 0 137.158 64.872 Q 137.817 65.131 138.646 65.245 A 10.308 10.308 0 0 0 140.04 65.333 A 11.617 11.617 0 0 0 141.124 65.276 Q 142.265 65.169 143.818 64.855 A 44.686 44.686 0 0 0 144.337 64.747 L 144.337 72.071 A 27.369 27.369 0 0 1 139.528 72.952 A 23.968 23.968 0 0 1 137.403 73.048 Q 132.436 73.048 129.473 70.582 A 9.511 9.511 0 0 1 128.273 69.386 A 12.049 12.049 0 0 1 126.027 65.156 Q 125.196 62.486 125.196 58.985 L 125.196 26.222 L 115.577 26.222 L 115.577 19.239 L 125.196 19.239 L 125.196 6.446 Z M 399.22 6.446 L 408.253 6.446 L 408.253 19.239 L 418.116 19.239 L 418.116 26.222 L 408.253 26.222 L 408.253 58.985 A 12.204 12.204 0 0 0 408.369 60.73 Q 408.498 61.621 408.77 62.339 A 4.894 4.894 0 0 0 409.571 63.746 A 3.9 3.9 0 0 0 411.181 64.872 Q 411.84 65.131 412.67 65.245 A 10.308 10.308 0 0 0 414.064 65.333 A 11.617 11.617 0 0 0 415.147 65.276 Q 416.288 65.169 417.841 64.855 A 44.686 44.686 0 0 0 418.36 64.747 L 418.36 72.071 A 27.369 27.369 0 0 1 413.552 72.952 A 23.968 23.968 0 0 1 411.427 73.048 Q 406.459 73.048 403.496 70.582 A 9.511 9.511 0 0 1 402.296 69.386 A 12.049 12.049 0 0 1 400.05 65.156 Q 399.22 62.486 399.22 58.985 L 399.22 26.222 L 389.601 26.222 L 389.601 19.239 L 399.22 19.239 L 399.22 6.446 Z M 682.862 6.446 L 691.896 6.446 L 691.896 19.239 L 701.759 19.239 L 701.759 26.222 L 691.896 26.222 L 691.896 58.985 A 12.204 12.204 0 0 0 692.012 60.73 Q 692.141 61.621 692.413 62.339 A 4.894 4.894 0 0 0 693.214 63.746 A 3.9 3.9 0 0 0 694.824 64.872 Q 695.483 65.131 696.312 65.245 A 10.308 10.308 0 0 0 697.706 65.333 A 11.617 11.617 0 0 0 698.79 65.276 Q 699.931 65.169 701.484 64.855 A 44.686 44.686 0 0 0 702.003 64.747 L 702.003 72.071 A 27.369 27.369 0 0 1 697.194 72.952 A 23.968 23.968 0 0 1 695.069 73.048 Q 690.102 73.048 687.139 70.582 A 9.511 9.511 0 0 1 685.939 69.386 A 12.049 12.049 0 0 1 683.693 65.156 Q 682.862 62.486 682.862 58.985 L 682.862 26.222 L 673.243 26.222 L 673.243 19.239 L 682.862 19.239 L 682.862 6.446 Z M 1063.722 6.446 L 1072.755 6.446 L 1072.755 19.239 L 1082.618 19.239 L 1082.618 26.222 L 1072.755 26.222 L 1072.755 58.985 A 12.204 12.204 0 0 0 1072.871 60.73 Q 1073 61.621 1073.272 62.339 A 4.894 4.894 0 0 0 1074.073 63.746 A 3.9 3.9 0 0 0 1075.683 64.872 Q 1076.342 65.131 1077.172 65.245 A 10.308 10.308 0 0 0 1078.566 65.333 A 11.617 11.617 0 0 0 1079.649 65.276 Q 1080.79 65.169 1082.343 64.855 A 44.686 44.686 0 0 0 1082.862 64.747 L 1082.862 72.071 A 27.369 27.369 0 0 1 1078.054 72.952 A 23.968 23.968 0 0 1 1075.929 73.048 Q 1070.961 73.048 1067.998 70.582 A 9.511 9.511 0 0 1 1066.798 69.386 A 12.049 12.049 0 0 1 1064.552 65.156 Q 1063.722 62.486 1063.722 58.985 L 1063.722 26.222 L 1054.103 26.222 L 1054.103 19.239 L 1063.722 19.239 L 1063.722 6.446 Z M 1115.04 45.802 L 1115.04 45.167 A 33.961 33.961 0 0 1 1116.006 36.927 A 28.587 28.587 0 0 1 1118.092 31.202 A 23.999 23.999 0 0 1 1122.7 24.696 A 21.745 21.745 0 0 1 1126.588 21.632 A 22.626 22.626 0 0 1 1137.081 18.329 A 27.674 27.674 0 0 1 1139.015 18.263 A 25.301 25.301 0 0 1 1147.385 19.592 A 21.518 21.518 0 0 1 1156.471 25.733 A 25.439 25.439 0 0 1 1162.237 37.163 A 37.474 37.474 0 0 1 1163.136 45.606 L 1163.136 46.241 A 34.597 34.597 0 0 1 1162.252 54.205 A 28.637 28.637 0 0 1 1160.182 60.084 A 22.849 22.849 0 0 1 1154.322 67.751 A 22.23 22.23 0 0 1 1151.734 69.63 A 22.726 22.726 0 0 1 1141.515 72.947 A 28.098 28.098 0 0 1 1139.112 73.048 A 25.13 25.13 0 0 1 1130.774 71.718 A 21.534 21.534 0 0 1 1121.705 65.577 Q 1115.04 58.106 1115.04 45.802 Z M 284.083 18.946 L 284.083 27.345 A 25.009 25.009 0 0 0 281.386 27.051 A 30.912 30.912 0 0 0 279.64 27.003 Q 270.997 27.003 267.758 34.161 A 16.051 16.051 0 0 0 267.579 34.571 L 267.579 72.071 L 258.546 72.071 L 258.546 19.239 L 267.335 19.239 L 267.482 25.343 A 16.014 16.014 0 0 1 271.336 21.028 Q 274.983 18.263 280.079 18.263 A 16.507 16.507 0 0 1 281.462 18.317 Q 282.893 18.437 283.824 18.828 A 4.272 4.272 0 0 1 284.083 18.946 Z M 563.722 18.946 L 563.722 27.345 A 25.009 25.009 0 0 0 561.025 27.051 A 30.912 30.912 0 0 0 559.278 27.003 Q 550.636 27.003 547.397 34.161 A 16.051 16.051 0 0 0 547.218 34.571 L 547.218 72.071 L 538.185 72.071 L 538.185 19.239 L 546.974 19.239 L 547.12 25.343 A 16.014 16.014 0 0 1 550.975 21.028 Q 554.621 18.263 559.718 18.263 A 16.507 16.507 0 0 1 561.101 18.317 Q 562.532 18.437 563.463 18.828 A 4.272 4.272 0 0 1 563.722 18.946 Z M 1102.98 19.239 L 1102.98 72.071 L 1093.946 72.071 L 1093.946 19.239 L 1102.98 19.239 Z M 1240.431 0.977 L 1239.747 52.003 L 1231.593 52.003 L 1230.958 0.977 L 1240.431 0.977 Z M 1126.846 58.292 A 17.164 17.164 0 0 0 1128.199 60.352 Q 1132.276 65.675 1139.112 65.675 Q 1145.875 65.675 1149.906 60.469 A 16.377 16.377 0 0 0 1150.05 60.279 Q 1153.269 55.994 1153.931 48.983 A 40.609 40.609 0 0 0 1154.103 45.167 Q 1154.103 37.671 1151.034 32.627 A 17.624 17.624 0 0 0 1149.977 31.08 A 13.676 13.676 0 0 0 1145.365 27.13 Q 1142.685 25.752 1139.345 25.688 A 17.075 17.075 0 0 0 1139.015 25.684 A 13.542 13.542 0 0 0 1133.163 26.923 Q 1130.347 28.252 1128.224 31.007 A 17.656 17.656 0 0 0 1125.422 36.535 Q 1124.65 38.985 1124.337 41.947 A 40.845 40.845 0 0 0 1124.122 46.241 Q 1124.122 53.425 1126.846 58.292 Z M 877.15 57.618 L 877.15 33.497 Q 873.212 26.317 865.539 25.949 A 17.533 17.533 0 0 0 864.698 25.929 A 13.531 13.531 0 0 0 859.86 26.759 Q 856.613 27.991 854.396 31.056 Q 851.757 34.701 850.994 40.84 A 43.942 43.942 0 0 0 850.685 46.241 A 35.317 35.317 0 0 0 851.079 51.692 Q 851.886 56.851 854.347 60.279 A 11.654 11.654 0 0 0 862.805 65.281 A 15.567 15.567 0 0 0 864.601 65.382 A 14.663 14.663 0 0 0 870.264 64.335 Q 874.616 62.531 877.15 57.618 Z M 933.253 57.618 L 933.253 33.497 Q 929.315 26.317 921.642 25.949 A 17.533 17.533 0 0 0 920.802 25.929 A 13.531 13.531 0 0 0 915.964 26.759 Q 912.717 27.991 910.499 31.056 Q 907.86 34.701 907.098 40.84 A 43.942 43.942 0 0 0 906.788 46.241 A 35.317 35.317 0 0 0 907.182 51.692 Q 907.99 56.851 910.45 60.279 A 11.654 11.654 0 0 0 918.908 65.281 A 15.567 15.567 0 0 0 920.704 65.382 A 14.663 14.663 0 0 0 926.367 64.335 Q 930.719 62.531 933.253 57.618 Z M 210.597 57.276 L 210.597 46.436 L 203.517 46.436 A 42.398 42.398 0 0 0 197.875 46.778 Q 191.699 47.612 189.004 50.483 A 7.953 7.953 0 0 0 186.915 56.153 A 10.222 10.222 0 0 0 187.297 59.023 A 7.628 7.628 0 0 0 189.747 62.794 A 9.928 9.928 0 0 0 194.341 64.941 A 13.989 13.989 0 0 0 197.023 65.186 Q 201.271 65.186 205.079 62.989 Q 208.888 60.792 210.597 57.276 Z M 459.864 57.276 L 459.864 46.436 L 452.784 46.436 A 42.398 42.398 0 0 0 447.142 46.778 Q 440.967 47.612 438.271 50.483 A 7.953 7.953 0 0 0 436.183 56.153 A 10.222 10.222 0 0 0 436.565 59.023 A 7.628 7.628 0 0 0 439.015 62.794 A 9.928 9.928 0 0 0 443.609 64.941 A 13.989 13.989 0 0 0 446.29 65.186 Q 450.538 65.186 454.347 62.989 Q 458.155 60.792 459.864 57.276 Z M 601.271 57.276 L 601.271 46.436 L 594.191 46.436 A 42.398 42.398 0 0 0 588.549 46.778 Q 582.373 47.612 579.677 50.483 A 7.953 7.953 0 0 0 577.589 56.153 A 10.222 10.222 0 0 0 577.971 59.023 A 7.628 7.628 0 0 0 580.421 62.794 A 9.928 9.928 0 0 0 585.015 64.941 A 13.989 13.989 0 0 0 587.696 65.186 Q 591.944 65.186 595.753 62.989 Q 599.562 60.792 601.271 57.276 Z M 76.026 40.821 L 102.491 40.821 L 102.491 40.138 Q 102.202 35.039 100.306 31.641 A 12.557 12.557 0 0 0 98.78 29.469 A 10.923 10.923 0 0 0 91.509 25.777 A 15.439 15.439 0 0 0 89.796 25.684 Q 84.327 25.684 80.616 29.664 Q 77.355 33.162 76.281 39.13 A 30.452 30.452 0 0 0 76.026 40.821 Z M 298.487 40.821 L 324.952 40.821 L 324.952 40.138 Q 324.663 35.039 322.767 31.641 A 12.557 12.557 0 0 0 321.241 29.469 A 10.923 10.923 0 0 0 313.97 25.777 A 15.439 15.439 0 0 0 312.257 25.684 Q 306.788 25.684 303.077 29.664 Q 299.816 33.162 298.742 39.13 A 30.452 30.452 0 0 0 298.487 40.821 Z M 962.989 40.821 L 989.454 40.821 L 989.454 40.138 Q 989.165 35.039 987.269 31.641 A 12.557 12.557 0 0 0 985.743 29.469 A 10.923 10.923 0 0 0 978.472 25.777 A 15.439 15.439 0 0 0 976.759 25.684 Q 971.29 25.684 967.579 29.664 Q 964.318 33.162 963.244 39.13 A 30.452 30.452 0 0 0 962.989 40.821 Z M 1093.524 3.272 A 5.95 5.95 0 0 0 1093.214 5.225 A 6.719 6.719 0 0 0 1093.241 5.829 A 5.068 5.068 0 0 0 1094.557 8.888 A 4.02 4.02 0 0 0 1095.389 9.58 Q 1096.091 10.02 1097.015 10.209 A 7.58 7.58 0 0 0 1098.536 10.352 A 8.925 8.925 0 0 0 1098.979 10.342 Q 1099.829 10.299 1100.535 10.092 A 4.363 4.363 0 0 0 1102.54 8.888 A 4.911 4.911 0 0 0 1103.627 7.066 A 5.809 5.809 0 0 0 1103.907 5.225 A 6.815 6.815 0 0 0 1103.899 4.886 A 5.264 5.264 0 0 0 1102.54 1.515 A 4.15 4.15 0 0 0 1101.871 0.918 Q 1101.123 0.383 1100.113 0.16 A 7.32 7.32 0 0 0 1098.536 0.001 Q 1095.9 0.001 1094.557 1.515 A 5.168 5.168 0 0 0 1093.524 3.272 Z M 1230.902 65.655 A 5.938 5.938 0 0 0 1230.616 67.53 A 6.647 6.647 0 0 0 1230.65 68.206 A 4.957 4.957 0 0 0 1231.959 71.168 A 4.008 4.008 0 0 0 1232.815 71.863 Q 1233.509 72.284 1234.417 72.468 A 7.705 7.705 0 0 0 1235.939 72.608 A 9.022 9.022 0 0 0 1236.423 72.596 Q 1237.268 72.55 1237.97 72.342 A 4.367 4.367 0 0 0 1239.942 71.168 A 4.798 4.798 0 0 0 1241.048 69.308 A 5.796 5.796 0 0 0 1241.31 67.53 A 6.752 6.752 0 0 0 1241.297 67.116 A 5.155 5.155 0 0 0 1239.942 63.844 A 4.129 4.129 0 0 0 1239.239 63.232 Q 1238.502 62.725 1237.515 62.511 A 7.436 7.436 0 0 0 1235.939 62.354 Q 1233.302 62.354 1231.959 63.844 A 5.046 5.046 0 0 0 1230.902 65.655 Z" vector-effect="non-scaling-stroke"/></g></svg>