<svg width="1213.722" height="92.872" viewBox="0 0 1213.722 92.872" xmlns="http://www.w3.org/2000/svg"><g id="svgGroup" stroke-linecap="round" fill-rule="evenodd" font-size="9pt" stroke="#000" stroke-width="0.25mm" fill="none" style="stroke:#000;stroke-width:0.25mm;fill:none"><path d="M 54.786 36.671 L 54.786 62.745 A 21.051 21.051 0 0 1 46.749 69.573 A 26.271 26.271 0 0 1 44.703 70.484 A 35.134 35.134 0 0 1 37.23 72.484 Q 33.779 73.03 29.891 73.047 A 57.314 57.314 0 0 1 29.64 73.048 Q 20.948 73.048 14.21 68.971 A 26.997 26.997 0 0 1 4.138 58.071 A 32.488 32.488 0 0 1 3.785 57.374 Q 0.099 49.854 0.001 39.942 L 0.001 33.741 Q 0.001 17.677 7.496 8.839 Q 14.991 0.001 28.566 0.001 A 35.462 35.462 0 0 1 36.155 0.768 Q 41.342 1.904 45.243 4.722 A 21.876 21.876 0 0 1 46.485 5.689 Q 53.273 11.378 54.786 21.827 L 45.411 21.827 Q 43.112 9.521 32.049 7.947 A 24.387 24.387 0 0 0 28.614 7.716 A 21.301 21.301 0 0 0 22.675 8.498 A 15.402 15.402 0 0 0 14.332 14.332 A 22.067 22.067 0 0 0 11.178 20.687 Q 10.21 23.696 9.776 27.365 A 54.12 54.12 0 0 0 9.425 33.497 L 9.425 39.308 A 42.518 42.518 0 0 0 10.071 46.952 Q 11.305 53.696 14.894 58.326 A 17.438 17.438 0 0 0 27.556 65.285 A 22.986 22.986 0 0 0 29.689 65.382 Q 34.499 65.382 38.212 64.407 A 23.408 23.408 0 0 0 38.917 64.21 A 15.076 15.076 0 0 0 43.23 62.183 A 13.522 13.522 0 0 0 45.46 60.255 L 45.46 44.288 L 29.005 44.288 L 29.005 36.671 L 54.786 36.671 Z M 798.39 25.099 L 798.829 19.239 L 807.081 19.239 L 807.081 70.802 A 27.894 27.894 0 0 1 806.296 77.61 A 19.315 19.315 0 0 1 801.002 86.964 Q 794.923 92.872 784.669 92.872 Q 778.956 92.872 773.487 90.431 A 22.254 22.254 0 0 1 768.929 87.745 A 17.364 17.364 0 0 1 765.138 83.741 L 769.825 78.321 A 20.991 20.991 0 0 0 774.653 82.765 A 16.819 16.819 0 0 0 784.034 85.499 A 18.83 18.83 0 0 0 788.223 85.06 Q 791.205 84.38 793.361 82.645 A 11.523 11.523 0 0 0 794.313 81.788 A 12.109 12.109 0 0 0 797.391 76.314 Q 797.999 74.076 797.999 71.339 L 797.999 66.798 A 17.785 17.785 0 0 1 786.31 72.863 A 25.326 25.326 0 0 1 783.204 73.048 Q 773.927 73.048 768.19 65.577 A 25.734 25.734 0 0 1 763.932 56.91 Q 762.915 53.371 762.597 49.17 A 52.428 52.428 0 0 1 762.452 45.216 A 43.443 43.443 0 0 1 763.127 37.32 Q 764.416 30.353 768.165 25.562 A 18.074 18.074 0 0 1 781.285 18.35 A 22.866 22.866 0 0 1 783.302 18.263 A 21.899 21.899 0 0 1 789.955 19.224 A 17.217 17.217 0 0 1 798.39 25.099 Z M 854.493 25.099 L 854.933 19.239 L 863.185 19.239 L 863.185 70.802 A 27.894 27.894 0 0 1 862.4 77.61 A 19.315 19.315 0 0 1 857.106 86.964 Q 851.026 92.872 840.773 92.872 Q 835.06 92.872 829.591 90.431 A 22.254 22.254 0 0 1 825.033 87.745 A 17.364 17.364 0 0 1 821.241 83.741 L 825.929 78.321 A 20.991 20.991 0 0 0 830.757 82.765 A 16.819 16.819 0 0 0 840.138 85.499 A 18.83 18.83 0 0 0 844.326 85.06 Q 847.309 84.38 849.465 82.645 A 11.523 11.523 0 0 0 850.416 81.788 A 12.109 12.109 0 0 0 853.494 76.314 Q 854.103 74.076 854.103 71.339 L 854.103 66.798 A 17.785 17.785 0 0 1 842.414 72.863 A 25.326 25.326 0 0 1 839.308 73.048 Q 830.03 73.048 824.293 65.577 A 25.734 25.734 0 0 1 820.035 56.91 Q 819.018 53.371 818.7 49.17 A 52.428 52.428 0 0 1 818.556 45.216 A 43.443 43.443 0 0 1 819.231 37.32 Q 820.52 30.353 824.269 25.562 A 18.074 18.074 0 0 1 837.388 18.35 A 22.866 22.866 0 0 1 839.405 18.263 A 21.899 21.899 0 0 1 846.059 19.224 A 17.217 17.217 0 0 1 854.493 25.099 Z M 304.591 34.767 L 295.509 34.767 Q 295.509 31.056 292.359 28.37 Q 289.21 25.684 284.425 25.684 A 18.294 18.294 0 0 0 281.42 25.916 Q 279.822 26.182 278.532 26.756 A 8.839 8.839 0 0 0 276.71 27.833 A 7.251 7.251 0 0 0 274.765 30.04 Q 273.953 31.498 273.928 33.33 A 8.552 8.552 0 0 0 273.927 33.448 A 6.531 6.531 0 0 0 274.261 35.591 A 5.329 5.329 0 0 0 276.515 38.38 A 12.15 12.15 0 0 0 278.184 39.251 Q 280.008 40.051 282.849 40.816 A 73.127 73.127 0 0 0 285.865 41.554 A 70.196 70.196 0 0 1 290.395 42.717 Q 294.137 43.822 296.827 45.167 Q 301.026 47.267 303.053 50.221 A 11.381 11.381 0 0 1 304.856 54.744 A 15.424 15.424 0 0 1 305.079 57.423 A 14.224 14.224 0 0 1 303.837 63.438 Q 302.427 66.503 299.415 68.775 Q 294.055 72.818 285.679 73.035 A 37.071 37.071 0 0 1 284.718 73.048 A 30.507 30.507 0 0 1 278.78 72.495 A 23.595 23.595 0 0 1 273.487 70.802 A 19.676 19.676 0 0 1 268.666 67.711 A 17.116 17.116 0 0 1 265.846 64.527 A 15.123 15.123 0 0 1 263.087 55.811 L 272.12 55.811 A 10.358 10.358 0 0 0 272.937 59.425 A 9.193 9.193 0 0 0 275.758 63.014 A 11.912 11.912 0 0 0 280.227 65.156 Q 282.261 65.675 284.718 65.675 A 20.695 20.695 0 0 0 288.003 65.429 Q 289.798 65.141 291.26 64.511 A 10.452 10.452 0 0 0 292.945 63.6 A 7.656 7.656 0 0 0 294.774 61.928 A 6.156 6.156 0 0 0 296.046 58.058 A 7.761 7.761 0 0 0 295.642 55.493 A 6.452 6.452 0 0 0 293.287 52.369 A 11.672 11.672 0 0 0 291.411 51.274 Q 289.313 50.272 286.035 49.431 A 59.907 59.907 0 0 0 283.668 48.878 Q 279.166 47.917 275.884 46.703 A 29.103 29.103 0 0 1 272.779 45.362 A 20.571 20.571 0 0 1 270.053 43.714 Q 268.598 42.661 267.565 41.451 A 11.305 11.305 0 0 1 266.822 40.479 A 11.071 11.071 0 0 1 265.014 35.627 A 14.346 14.346 0 0 1 264.894 33.741 A 13.405 13.405 0 0 1 269.328 23.688 A 18.819 18.819 0 0 1 270.387 22.755 Q 275.88 18.263 284.425 18.263 A 28.433 28.433 0 0 1 290.686 18.915 A 19.527 19.527 0 0 1 299 22.901 A 15.379 15.379 0 0 1 303.193 28.187 A 15.243 15.243 0 0 1 304.591 34.767 Z M 697.218 34.767 L 688.136 34.767 Q 688.136 31.056 684.986 28.37 Q 681.837 25.684 677.052 25.684 A 18.294 18.294 0 0 0 674.047 25.916 Q 672.449 26.182 671.159 26.756 A 8.839 8.839 0 0 0 669.337 27.833 A 7.251 7.251 0 0 0 667.392 30.04 Q 666.58 31.498 666.555 33.33 A 8.552 8.552 0 0 0 666.554 33.448 A 6.531 6.531 0 0 0 666.888 35.591 A 5.329 5.329 0 0 0 669.142 38.38 A 12.15 12.15 0 0 0 670.811 39.251 Q 672.635 40.051 675.476 40.816 A 73.127 73.127 0 0 0 678.492 41.554 A 70.196 70.196 0 0 1 683.022 42.717 Q 686.764 43.822 689.454 45.167 Q 693.653 47.267 695.68 50.221 A 11.381 11.381 0 0 1 697.483 54.744 A 15.424 15.424 0 0 1 697.706 57.423 A 14.224 14.224 0 0 1 696.464 63.438 Q 695.054 66.503 692.042 68.775 Q 686.682 72.818 678.305 73.035 A 37.071 37.071 0 0 1 677.345 73.048 A 30.507 30.507 0 0 1 671.407 72.495 A 23.595 23.595 0 0 1 666.114 70.802 A 19.676 19.676 0 0 1 661.293 67.711 A 17.116 17.116 0 0 1 658.473 64.527 A 15.123 15.123 0 0 1 655.714 55.811 L 664.747 55.811 A 10.358 10.358 0 0 0 665.564 59.425 A 9.193 9.193 0 0 0 668.385 63.014 A 11.912 11.912 0 0 0 672.854 65.156 Q 674.888 65.675 677.345 65.675 A 20.695 20.695 0 0 0 680.63 65.429 Q 682.425 65.141 683.887 64.511 A 10.452 10.452 0 0 0 685.572 63.6 A 7.656 7.656 0 0 0 687.4 61.928 A 6.156 6.156 0 0 0 688.673 58.058 A 7.761 7.761 0 0 0 688.269 55.493 A 6.452 6.452 0 0 0 685.914 52.369 A 11.672 11.672 0 0 0 684.038 51.274 Q 681.94 50.272 678.662 49.431 A 59.907 59.907 0 0 0 676.295 48.878 Q 671.793 47.917 668.51 46.703 A 29.103 29.103 0 0 1 665.406 45.362 A 20.571 20.571 0 0 1 662.68 43.714 Q 661.224 42.661 660.192 41.451 A 11.305 11.305 0 0 1 659.449 40.479 A 11.071 11.071 0 0 1 657.641 35.627 A 14.346 14.346 0 0 1 657.521 33.741 A 13.405 13.405 0 0 1 661.955 23.688 A 18.819 18.819 0 0 1 663.014 22.755 Q 668.507 18.263 677.052 18.263 A 28.433 28.433 0 0 1 683.313 18.915 A 19.527 19.527 0 0 1 691.627 22.901 A 15.379 15.379 0 0 1 695.82 28.187 A 15.243 15.243 0 0 1 697.218 34.767 Z M 969.093 34.767 L 960.011 34.767 Q 960.011 31.056 956.861 28.37 Q 953.712 25.684 948.927 25.684 A 18.294 18.294 0 0 0 945.922 25.916 Q 944.324 26.182 943.034 26.756 A 8.839 8.839 0 0 0 941.212 27.833 A 7.251 7.251 0 0 0 939.267 30.04 Q 938.455 31.498 938.43 33.33 A 8.552 8.552 0 0 0 938.429 33.448 A 6.531 6.531 0 0 0 938.763 35.591 A 5.329 5.329 0 0 0 941.017 38.38 A 12.15 12.15 0 0 0 942.686 39.251 Q 944.51 40.051 947.351 40.816 A 73.127 73.127 0 0 0 950.367 41.554 A 70.196 70.196 0 0 1 954.897 42.717 Q 958.639 43.822 961.329 45.167 Q 965.528 47.267 967.555 50.221 A 11.381 11.381 0 0 1 969.358 54.744 A 15.424 15.424 0 0 1 969.581 57.423 A 14.224 14.224 0 0 1 968.339 63.438 Q 966.929 66.503 963.917 68.775 Q 958.557 72.818 950.18 73.035 A 37.071 37.071 0 0 1 949.22 73.048 A 30.507 30.507 0 0 1 943.282 72.495 A 23.595 23.595 0 0 1 937.989 70.802 A 19.676 19.676 0 0 1 933.168 67.711 A 17.116 17.116 0 0 1 930.348 64.527 A 15.123 15.123 0 0 1 927.589 55.811 L 936.622 55.811 A 10.358 10.358 0 0 0 937.439 59.425 A 9.193 9.193 0 0 0 940.26 63.014 A 11.912 11.912 0 0 0 944.729 65.156 Q 946.763 65.675 949.22 65.675 A 20.695 20.695 0 0 0 952.505 65.429 Q 954.3 65.141 955.762 64.511 A 10.452 10.452 0 0 0 957.447 63.6 A 7.656 7.656 0 0 0 959.275 61.928 A 6.156 6.156 0 0 0 960.548 58.058 A 7.761 7.761 0 0 0 960.144 55.493 A 6.452 6.452 0 0 0 957.789 52.369 A 11.672 11.672 0 0 0 955.913 51.274 Q 953.815 50.272 950.537 49.431 A 59.907 59.907 0 0 0 948.17 48.878 Q 943.668 47.917 940.385 46.703 A 29.103 29.103 0 0 1 937.281 45.362 A 20.571 20.571 0 0 1 934.555 43.714 Q 933.099 42.661 932.067 41.451 A 11.305 11.305 0 0 1 931.324 40.479 A 11.071 11.071 0 0 1 929.516 35.627 A 14.346 14.346 0 0 1 929.396 33.741 A 13.405 13.405 0 0 1 933.83 23.688 A 18.819 18.819 0 0 1 934.889 22.755 Q 940.382 18.263 948.927 18.263 A 28.433 28.433 0 0 1 955.188 18.915 A 19.527 19.527 0 0 1 963.502 22.901 A 15.379 15.379 0 0 1 967.695 28.187 A 15.243 15.243 0 0 1 969.093 34.767 Z M 1189.796 34.767 L 1180.714 34.767 Q 1180.714 31.056 1177.565 28.37 Q 1174.415 25.684 1169.63 25.684 A 18.294 18.294 0 0 0 1166.625 25.916 Q 1165.028 26.182 1163.737 26.756 A 8.839 8.839 0 0 0 1161.915 27.833 A 7.251 7.251 0 0 0 1159.97 30.04 Q 1159.158 31.498 1159.133 33.33 A 8.552 8.552 0 0 0 1159.132 33.448 A 6.531 6.531 0 0 0 1159.466 35.591 A 5.329 5.329 0 0 0 1161.72 38.38 A 12.15 12.15 0 0 0 1163.389 39.251 Q 1165.213 40.051 1168.054 40.816 A 73.127 73.127 0 0 0 1171.07 41.554 A 70.196 70.196 0 0 1 1175.6 42.717 Q 1179.342 43.822 1182.032 45.167 Q 1186.232 47.267 1188.258 50.221 A 11.381 11.381 0 0 1 1190.061 54.744 A 15.424 15.424 0 0 1 1190.284 57.423 A 14.224 14.224 0 0 1 1189.042 63.438 Q 1187.632 66.503 1184.62 68.775 Q 1179.26 72.818 1170.884 73.035 A 37.071 37.071 0 0 1 1169.923 73.048 A 30.507 30.507 0 0 1 1163.985 72.495 A 23.595 23.595 0 0 1 1158.692 70.802 A 19.676 19.676 0 0 1 1153.871 67.711 A 17.116 17.116 0 0 1 1151.051 64.527 A 15.123 15.123 0 0 1 1148.292 55.811 L 1157.325 55.811 A 10.358 10.358 0 0 0 1158.142 59.425 A 9.193 9.193 0 0 0 1160.963 63.014 A 11.912 11.912 0 0 0 1165.432 65.156 Q 1167.466 65.675 1169.923 65.675 A 20.695 20.695 0 0 0 1173.208 65.429 Q 1175.003 65.141 1176.465 64.511 A 10.452 10.452 0 0 0 1178.15 63.6 A 7.656 7.656 0 0 0 1179.979 61.928 A 6.156 6.156 0 0 0 1181.251 58.058 A 7.761 7.761 0 0 0 1180.847 55.493 A 6.452 6.452 0 0 0 1178.492 52.369 A 11.672 11.672 0 0 0 1176.616 51.274 Q 1174.518 50.272 1171.24 49.431 A 59.907 59.907 0 0 0 1168.873 48.878 Q 1164.371 47.917 1161.089 46.703 A 29.103 29.103 0 0 1 1157.984 45.362 A 20.571 20.571 0 0 1 1155.258 43.714 Q 1153.803 42.661 1152.77 41.451 A 11.305 11.305 0 0 1 1152.027 40.479 A 11.071 11.071 0 0 1 1150.219 35.627 A 14.346 14.346 0 0 1 1150.099 33.741 A 13.405 13.405 0 0 1 1154.533 23.688 A 18.819 18.819 0 0 1 1155.592 22.755 Q 1161.085 18.263 1169.63 18.263 A 28.433 28.433 0 0 1 1175.891 18.915 A 19.527 19.527 0 0 1 1184.205 22.901 A 15.379 15.379 0 0 1 1188.398 28.187 A 15.243 15.243 0 0 1 1189.796 34.767 Z M 545.314 19.239 L 553.858 19.239 L 554.151 25.88 A 20.007 20.007 0 0 1 561.072 20.197 Q 564.926 18.323 569.665 18.264 A 24.818 24.818 0 0 1 569.972 18.263 A 21.166 21.166 0 0 1 577.011 19.336 Q 586.755 22.765 586.866 37.159 L 586.866 72.071 L 577.833 72.071 L 577.833 37.11 Q 577.784 31.397 575.221 28.663 Q 573.153 26.457 569.227 26.031 A 18.441 18.441 0 0 0 567.237 25.929 A 13.921 13.921 0 0 0 562.633 26.67 A 12.481 12.481 0 0 0 559.523 28.272 A 15.915 15.915 0 0 0 554.347 34.425 L 554.347 72.071 L 545.314 72.071 L 545.314 19.239 Z M 1095.314 19.239 L 1103.858 19.239 L 1104.151 25.88 A 20.007 20.007 0 0 1 1111.072 20.197 Q 1114.926 18.323 1119.665 18.264 A 24.818 24.818 0 0 1 1119.972 18.263 A 21.166 21.166 0 0 1 1127.011 19.336 Q 1136.755 22.765 1136.866 37.159 L 1136.866 72.071 L 1127.833 72.071 L 1127.833 37.11 Q 1127.784 31.397 1125.221 28.663 Q 1123.153 26.457 1119.227 26.031 A 18.441 18.441 0 0 0 1117.237 25.929 A 13.921 13.921 0 0 0 1112.633 26.67 A 12.481 12.481 0 0 0 1109.523 28.272 A 15.915 15.915 0 0 0 1104.347 34.425 L 1104.347 72.071 L 1095.314 72.071 L 1095.314 19.239 Z M 436.72 72.071 L 436.525 66.847 Q 431.306 72.983 421.26 73.047 A 33.325 33.325 0 0 1 421.046 73.048 A 23.183 23.183 0 0 1 415.936 72.519 Q 411.149 71.438 408.18 68.141 A 15.666 15.666 0 0 1 405.035 62.616 Q 404.235 60.26 403.918 57.384 A 36.21 36.21 0 0 1 403.712 53.614 L 403.712 19.239 L 412.745 19.239 L 412.745 53.37 Q 412.745 65.382 422.511 65.382 A 21.414 21.414 0 0 0 427.521 64.837 Q 433.77 63.332 436.28 57.667 L 436.28 19.239 L 445.314 19.239 L 445.314 72.071 L 436.72 72.071 Z M 742.286 72.071 L 742.091 66.847 Q 736.873 72.983 726.826 73.047 A 33.325 33.325 0 0 1 726.612 73.048 A 23.183 23.183 0 0 1 721.503 72.519 Q 716.715 71.438 713.746 68.141 A 15.666 15.666 0 0 1 710.601 62.616 Q 709.801 60.26 709.485 57.384 A 36.21 36.21 0 0 1 709.278 53.614 L 709.278 19.239 L 718.312 19.239 L 718.312 53.37 Q 718.312 65.382 728.077 65.382 A 21.414 21.414 0 0 0 733.087 64.837 Q 739.337 63.332 741.847 57.667 L 741.847 19.239 L 750.88 19.239 L 750.88 72.071 L 742.286 72.071 Z M 391.603 72.071 L 382.13 72.071 Q 381.349 70.509 380.86 66.505 A 21.481 21.481 0 0 1 373.951 71.412 A 20.155 20.155 0 0 1 365.821 73.048 A 22.593 22.593 0 0 1 359.94 72.319 A 16.988 16.988 0 0 1 353.004 68.629 A 14.202 14.202 0 0 1 348.02 58.288 A 17.812 17.812 0 0 1 347.999 57.423 A 17.307 17.307 0 0 1 348.937 51.592 A 14.557 14.557 0 0 1 354.274 44.605 Q 360.548 40.04 371.925 40.04 L 380.714 40.04 L 380.714 35.89 A 12.803 12.803 0 0 0 380.317 32.612 A 9.196 9.196 0 0 0 377.882 28.346 Q 375.05 25.538 369.532 25.538 A 15.837 15.837 0 0 0 365.732 25.973 A 11.865 11.865 0 0 0 361.427 27.979 A 9.506 9.506 0 0 0 359.598 29.735 A 6.582 6.582 0 0 0 358.155 33.888 L 349.073 33.888 A 11.565 11.565 0 0 1 350.461 28.459 A 15.652 15.652 0 0 1 351.881 26.246 A 18.11 18.11 0 0 1 356.951 21.741 A 22.807 22.807 0 0 1 359.498 20.411 A 24.987 24.987 0 0 1 368.117 18.326 A 29.659 29.659 0 0 1 370.069 18.263 A 29.439 29.439 0 0 1 375.819 18.79 Q 380.959 19.814 384.376 22.828 A 15.51 15.51 0 0 1 389.413 32.006 A 22.2 22.2 0 0 1 389.747 35.401 L 389.747 59.718 A 46.423 46.423 0 0 0 389.947 64.171 Q 390.356 68.403 391.603 71.29 L 391.603 72.071 Z M 533.009 72.071 L 523.536 72.071 Q 522.755 70.509 522.267 66.505 A 21.481 21.481 0 0 1 515.358 71.412 A 20.155 20.155 0 0 1 507.228 73.048 A 22.593 22.593 0 0 1 501.347 72.319 A 16.988 16.988 0 0 1 494.41 68.629 A 14.202 14.202 0 0 1 489.426 58.288 A 17.812 17.812 0 0 1 489.405 57.423 A 17.307 17.307 0 0 1 490.344 51.592 A 14.557 14.557 0 0 1 495.68 44.605 Q 501.954 40.04 513.331 40.04 L 522.12 40.04 L 522.12 35.89 A 12.803 12.803 0 0 0 521.723 32.612 A 9.196 9.196 0 0 0 519.288 28.346 Q 516.456 25.538 510.939 25.538 A 15.837 15.837 0 0 0 507.138 25.973 A 11.865 11.865 0 0 0 502.833 27.979 A 9.506 9.506 0 0 0 501.004 29.735 A 6.582 6.582 0 0 0 499.562 33.888 L 490.48 33.888 A 11.565 11.565 0 0 1 491.868 28.459 A 15.652 15.652 0 0 1 493.287 26.246 A 18.11 18.11 0 0 1 498.357 21.741 A 22.807 22.807 0 0 1 500.904 20.411 A 24.987 24.987 0 0 1 509.523 18.326 A 29.659 29.659 0 0 1 511.476 18.263 A 29.439 29.439 0 0 1 517.225 18.79 Q 522.365 19.814 525.782 22.828 A 15.51 15.51 0 0 1 530.82 32.006 A 22.2 22.2 0 0 1 531.153 35.401 L 531.153 59.718 A 46.423 46.423 0 0 0 531.353 64.171 Q 531.762 68.403 533.009 71.29 L 533.009 72.071 Z M 66.7 47.12 L 66.7 45.46 A 35.217 35.217 0 0 1 67.548 37.583 A 28.681 28.681 0 0 1 69.703 31.422 A 24.345 24.345 0 0 1 74.675 24.471 A 22.592 22.592 0 0 1 78.102 21.754 A 21.115 21.115 0 0 1 89.796 18.263 A 25.048 25.048 0 0 1 96.608 19.139 A 18.214 18.214 0 0 1 105.812 25.05 Q 111.525 31.837 111.525 44.483 L 111.525 48.243 L 75.733 48.243 A 23.461 23.461 0 0 0 76.523 53.888 A 16.845 16.845 0 0 0 80.299 60.865 A 14.244 14.244 0 0 0 90.677 65.66 A 18.354 18.354 0 0 0 91.407 65.675 A 19.593 19.593 0 0 0 95.054 65.352 Q 97.376 64.913 99.249 63.873 A 12.287 12.287 0 0 0 99.513 63.722 Q 102.833 61.768 105.323 58.546 L 110.841 62.843 A 21.402 21.402 0 0 1 95.288 72.746 A 30.546 30.546 0 0 1 90.919 73.048 A 26.605 26.605 0 0 1 82.572 71.793 A 21.937 21.937 0 0 1 73.439 65.992 A 23.728 23.728 0 0 1 67.392 54.201 A 34.476 34.476 0 0 1 66.7 47.12 Z M 210.011 47.12 L 210.011 45.46 A 35.217 35.217 0 0 1 210.858 37.583 A 28.681 28.681 0 0 1 213.014 31.422 A 24.345 24.345 0 0 1 217.986 24.471 A 22.592 22.592 0 0 1 221.412 21.754 A 21.115 21.115 0 0 1 233.107 18.263 A 25.048 25.048 0 0 1 239.919 19.139 A 18.214 18.214 0 0 1 249.122 25.05 Q 254.835 31.837 254.835 44.483 L 254.835 48.243 L 219.044 48.243 A 23.461 23.461 0 0 0 219.834 53.888 A 16.845 16.845 0 0 0 223.609 60.865 A 14.244 14.244 0 0 0 233.988 65.66 A 18.354 18.354 0 0 0 234.718 65.675 A 19.593 19.593 0 0 0 238.364 65.352 Q 240.687 64.913 242.559 63.873 A 12.287 12.287 0 0 0 242.823 63.722 Q 246.144 61.768 248.634 58.546 L 254.151 62.843 A 21.402 21.402 0 0 1 238.599 72.746 A 30.546 30.546 0 0 1 234.23 73.048 A 26.605 26.605 0 0 1 225.883 71.793 A 21.937 21.937 0 0 1 216.749 65.992 A 23.728 23.728 0 0 1 210.702 54.201 A 34.476 34.476 0 0 1 210.011 47.12 Z M 874.513 47.12 L 874.513 45.46 A 35.217 35.217 0 0 1 875.36 37.583 A 28.681 28.681 0 0 1 877.516 31.422 A 24.345 24.345 0 0 1 882.487 24.471 A 22.592 22.592 0 0 1 885.914 21.754 A 21.115 21.115 0 0 1 897.608 18.263 A 25.048 25.048 0 0 1 904.421 19.139 A 18.214 18.214 0 0 1 913.624 25.05 Q 919.337 31.837 919.337 44.483 L 919.337 48.243 L 883.546 48.243 A 23.461 23.461 0 0 0 884.336 53.888 A 16.845 16.845 0 0 0 888.111 60.865 A 14.244 14.244 0 0 0 898.49 65.66 A 18.354 18.354 0 0 0 899.22 65.675 A 19.593 19.593 0 0 0 902.866 65.352 Q 905.189 64.913 907.061 63.873 A 12.287 12.287 0 0 0 907.325 63.722 Q 910.646 61.768 913.136 58.546 L 918.653 62.843 A 21.402 21.402 0 0 1 903.101 72.746 A 30.546 30.546 0 0 1 898.732 73.048 A 26.605 26.605 0 0 1 890.385 71.793 A 21.937 21.937 0 0 1 881.251 65.992 A 23.728 23.728 0 0 1 875.204 54.201 A 34.476 34.476 0 0 1 874.513 47.12 Z M 125.196 6.446 L 134.23 6.446 L 134.23 19.239 L 144.093 19.239 L 144.093 26.222 L 134.23 26.222 L 134.23 58.985 A 12.204 12.204 0 0 0 134.346 60.73 Q 134.475 61.621 134.747 62.339 A 4.894 4.894 0 0 0 135.548 63.746 A 3.9 3.9 0 0 0 137.158 64.872 Q 137.817 65.131 138.646 65.245 A 10.308 10.308 0 0 0 140.04 65.333 A 11.617 11.617 0 0 0 141.124 65.276 Q 142.265 65.169 143.818 64.855 A 44.686 44.686 0 0 0 144.337 64.747 L 144.337 72.071 A 27.369 27.369 0 0 1 139.528 72.952 A 23.968 23.968 0 0 1 137.403 73.048 Q 132.436 73.048 129.473 70.582 A 9.511 9.511 0 0 1 128.273 69.386 A 12.049 12.049 0 0 1 126.027 65.156 Q 125.196 62.486 125.196 58.985 L 125.196 26.222 L 115.577 26.222 L 115.577 19.239 L 125.196 19.239 L 125.196 6.446 Z M 320.069 6.446 L 329.103 6.446 L 329.103 19.239 L 338.966 19.239 L 338.966 26.222 L 329.103 26.222 L 329.103 58.985 A 12.204 12.204 0 0 0 329.219 60.73 Q 329.348 61.621 329.62 62.339 A 4.894 4.894 0 0 0 330.421 63.746 A 3.9 3.9 0 0 0 332.031 64.872 Q 332.69 65.131 333.519 65.245 A 10.308 10.308 0 0 0 334.913 65.333 A 11.617 11.617 0 0 0 335.997 65.276 Q 337.138 65.169 338.691 64.855 A 44.686 44.686 0 0 0 339.21 64.747 L 339.21 72.071 A 27.369 27.369 0 0 1 334.401 72.952 A 23.968 23.968 0 0 1 332.276 73.048 Q 327.309 73.048 324.346 70.582 A 9.511 9.511 0 0 1 323.146 69.386 A 12.049 12.049 0 0 1 320.9 65.156 Q 320.069 62.486 320.069 58.985 L 320.069 26.222 L 310.45 26.222 L 310.45 19.239 L 320.069 19.239 L 320.069 6.446 Z M 603.712 6.446 L 612.745 6.446 L 612.745 19.239 L 622.608 19.239 L 622.608 26.222 L 612.745 26.222 L 612.745 58.985 A 12.204 12.204 0 0 0 612.861 60.73 Q 612.99 61.621 613.263 62.339 A 4.894 4.894 0 0 0 614.064 63.746 A 3.9 3.9 0 0 0 615.673 64.872 Q 616.332 65.131 617.162 65.245 A 10.308 10.308 0 0 0 618.556 65.333 A 11.617 11.617 0 0 0 619.639 65.276 Q 620.781 65.169 622.333 64.855 A 44.686 44.686 0 0 0 622.853 64.747 L 622.853 72.071 A 27.369 27.369 0 0 1 618.044 72.952 A 23.968 23.968 0 0 1 615.919 73.048 Q 610.951 73.048 607.989 70.582 A 9.511 9.511 0 0 1 606.788 69.386 A 12.049 12.049 0 0 1 604.542 65.156 Q 603.712 62.486 603.712 58.985 L 603.712 26.222 L 594.093 26.222 L 594.093 19.239 L 603.712 19.239 L 603.712 6.446 Z M 984.571 6.446 L 993.605 6.446 L 993.605 19.239 L 1003.468 19.239 L 1003.468 26.222 L 993.605 26.222 L 993.605 58.985 A 12.204 12.204 0 0 0 993.721 60.73 Q 993.85 61.621 994.122 62.339 A 4.894 4.894 0 0 0 994.923 63.746 A 3.9 3.9 0 0 0 996.533 64.872 Q 997.192 65.131 998.021 65.245 A 10.308 10.308 0 0 0 999.415 65.333 A 11.617 11.617 0 0 0 1000.499 65.276 Q 1001.64 65.169 1003.193 64.855 A 44.686 44.686 0 0 0 1003.712 64.747 L 1003.712 72.071 A 27.369 27.369 0 0 1 998.903 72.952 A 23.968 23.968 0 0 1 996.778 73.048 Q 991.811 73.048 988.848 70.582 A 9.511 9.511 0 0 1 987.648 69.386 A 12.049 12.049 0 0 1 985.402 65.156 Q 984.571 62.486 984.571 58.985 L 984.571 26.222 L 974.952 26.222 L 974.952 19.239 L 984.571 19.239 L 984.571 6.446 Z M 1035.89 45.802 L 1035.89 45.167 A 33.961 33.961 0 0 1 1036.855 36.927 A 28.587 28.587 0 0 1 1038.941 31.202 A 23.999 23.999 0 0 1 1043.549 24.696 A 21.745 21.745 0 0 1 1047.438 21.632 A 22.626 22.626 0 0 1 1057.931 18.329 A 27.674 27.674 0 0 1 1059.864 18.263 A 25.301 25.301 0 0 1 1068.235 19.592 A 21.518 21.518 0 0 1 1077.32 25.733 A 25.439 25.439 0 0 1 1083.087 37.163 A 37.474 37.474 0 0 1 1083.985 45.606 L 1083.985 46.241 A 34.597 34.597 0 0 1 1083.102 54.205 A 28.637 28.637 0 0 1 1081.031 60.084 A 22.849 22.849 0 0 1 1075.172 67.751 A 22.23 22.23 0 0 1 1072.584 69.63 A 22.726 22.726 0 0 1 1062.364 72.947 A 28.098 28.098 0 0 1 1059.962 73.048 A 25.13 25.13 0 0 1 1051.624 71.718 A 21.534 21.534 0 0 1 1042.555 65.577 Q 1035.89 58.106 1035.89 45.802 Z M 204.933 18.946 L 204.933 27.345 A 25.009 25.009 0 0 0 202.236 27.051 A 30.912 30.912 0 0 0 200.489 27.003 Q 191.847 27.003 188.608 34.161 A 16.051 16.051 0 0 0 188.429 34.571 L 188.429 72.071 L 179.396 72.071 L 179.396 19.239 L 188.185 19.239 L 188.331 25.343 A 16.014 16.014 0 0 1 192.186 21.028 Q 195.832 18.263 200.929 18.263 A 16.507 16.507 0 0 1 202.312 18.317 Q 203.743 18.437 204.674 18.828 A 4.272 4.272 0 0 1 204.933 18.946 Z M 484.571 18.946 L 484.571 27.345 A 25.009 25.009 0 0 0 481.874 27.051 A 30.912 30.912 0 0 0 480.128 27.003 Q 471.485 27.003 468.246 34.161 A 16.051 16.051 0 0 0 468.067 34.571 L 468.067 72.071 L 459.034 72.071 L 459.034 19.239 L 467.823 19.239 L 467.97 25.343 A 16.014 16.014 0 0 1 471.824 21.028 Q 475.471 18.263 480.567 18.263 A 16.507 16.507 0 0 1 481.95 18.317 Q 483.382 18.437 484.312 18.828 A 4.272 4.272 0 0 1 484.571 18.946 Z M 1023.829 19.239 L 1023.829 72.071 L 1014.796 72.071 L 1014.796 19.239 L 1023.829 19.239 Z M 1212.843 0.977 L 1212.159 52.003 L 1204.005 52.003 L 1203.37 0.977 L 1212.843 0.977 Z M 1047.695 58.292 A 17.164 17.164 0 0 0 1049.049 60.352 Q 1053.126 65.675 1059.962 65.675 Q 1066.725 65.675 1070.755 60.469 A 16.377 16.377 0 0 0 1070.9 60.279 Q 1074.118 55.994 1074.781 48.983 A 40.609 40.609 0 0 0 1074.952 45.167 Q 1074.952 37.671 1071.883 32.627 A 17.624 17.624 0 0 0 1070.826 31.08 A 13.676 13.676 0 0 0 1066.215 27.13 Q 1063.534 25.752 1060.194 25.688 A 17.075 17.075 0 0 0 1059.864 25.684 A 13.542 13.542 0 0 0 1054.012 26.923 Q 1051.196 28.252 1049.073 31.007 A 17.656 17.656 0 0 0 1046.272 36.535 Q 1045.5 38.985 1045.186 41.947 A 40.845 40.845 0 0 0 1044.972 46.241 Q 1044.972 53.425 1047.695 58.292 Z M 797.999 57.618 L 797.999 33.497 Q 794.062 26.317 786.388 25.949 A 17.533 17.533 0 0 0 785.548 25.929 A 13.531 13.531 0 0 0 780.71 26.759 Q 777.463 27.991 775.245 31.056 Q 772.607 34.701 771.844 40.84 A 43.942 43.942 0 0 0 771.534 46.241 A 35.317 35.317 0 0 0 771.929 51.692 Q 772.736 56.851 775.196 60.279 A 11.654 11.654 0 0 0 783.654 65.281 A 15.567 15.567 0 0 0 785.45 65.382 A 14.663 14.663 0 0 0 791.113 64.335 Q 795.465 62.531 797.999 57.618 Z M 854.103 57.618 L 854.103 33.497 Q 850.165 26.317 842.492 25.949 A 17.533 17.533 0 0 0 841.651 25.929 A 13.531 13.531 0 0 0 836.813 26.759 Q 833.567 27.991 831.349 31.056 Q 828.71 34.701 827.948 40.84 A 43.942 43.942 0 0 0 827.638 46.241 A 35.317 35.317 0 0 0 828.032 51.692 Q 828.839 56.851 831.3 60.279 A 11.654 11.654 0 0 0 839.758 65.281 A 15.567 15.567 0 0 0 841.554 65.382 A 14.663 14.663 0 0 0 847.217 64.335 Q 851.569 62.531 854.103 57.618 Z M 380.714 57.276 L 380.714 46.436 L 373.634 46.436 A 42.398 42.398 0 0 0 367.992 46.778 Q 361.816 47.612 359.121 50.483 A 7.953 7.953 0 0 0 357.032 56.153 A 10.222 10.222 0 0 0 357.414 59.023 A 7.628 7.628 0 0 0 359.864 62.794 A 9.928 9.928 0 0 0 364.459 64.941 A 13.989 13.989 0 0 0 367.14 65.186 Q 371.388 65.186 375.196 62.989 Q 379.005 60.792 380.714 57.276 Z M 522.12 57.276 L 522.12 46.436 L 515.04 46.436 A 42.398 42.398 0 0 0 509.398 46.778 Q 503.223 47.612 500.527 50.483 A 7.953 7.953 0 0 0 498.439 56.153 A 10.222 10.222 0 0 0 498.82 59.023 A 7.628 7.628 0 0 0 501.271 62.794 A 9.928 9.928 0 0 0 505.865 64.941 A 13.989 13.989 0 0 0 508.546 65.186 Q 512.794 65.186 516.603 62.989 Q 520.411 60.792 522.12 57.276 Z M 76.026 40.821 L 102.491 40.821 L 102.491 40.138 Q 102.202 35.039 100.306 31.641 A 12.557 12.557 0 0 0 98.78 29.469 A 10.923 10.923 0 0 0 91.509 25.777 A 15.439 15.439 0 0 0 89.796 25.684 Q 84.327 25.684 80.616 29.664 Q 77.355 33.162 76.281 39.13 A 30.452 30.452 0 0 0 76.026 40.821 Z M 219.337 40.821 L 245.802 40.821 L 245.802 40.138 Q 245.513 35.039 243.616 31.641 A 12.557 12.557 0 0 0 242.091 29.469 A 10.923 10.923 0 0 0 234.819 25.777 A 15.439 15.439 0 0 0 233.107 25.684 Q 227.638 25.684 223.927 29.664 Q 220.665 33.162 219.591 39.13 A 30.452 30.452 0 0 0 219.337 40.821 Z M 883.839 40.821 L 910.304 40.821 L 910.304 40.138 Q 910.015 35.039 908.118 31.641 A 12.557 12.557 0 0 0 906.593 29.469 A 10.923 10.923 0 0 0 899.321 25.777 A 15.439 15.439 0 0 0 897.608 25.684 Q 892.14 25.684 888.429 29.664 Q 885.167 33.162 884.093 39.13 A 30.452 30.452 0 0 0 883.839 40.821 Z M 1014.374 3.272 A 5.95 5.95 0 0 0 1014.064 5.225 A 6.719 6.719 0 0 0 1014.09 5.829 A 5.068 5.068 0 0 0 1015.406 8.888 A 4.02 4.02 0 0 0 1016.239 9.58 Q 1016.941 10.02 1017.864 10.209 A 7.58 7.58 0 0 0 1019.386 10.352 A 8.925 8.925 0 0 0 1019.828 10.342 Q 1020.678 10.299 1021.385 10.092 A 4.363 4.363 0 0 0 1023.39 8.888 A 4.911 4.911 0 0 0 1024.476 7.066 A 5.809 5.809 0 0 0 1024.757 5.225 A 6.815 6.815 0 0 0 1024.749 4.886 A 5.264 5.264 0 0 0 1023.39 1.515 A 4.15 4.15 0 0 0 1022.721 0.918 Q 1021.972 0.383 1020.962 0.16 A 7.32 7.32 0 0 0 1019.386 0.001 Q 1016.749 0.001 1015.406 1.515 A 5.168 5.168 0 0 0 1014.374 3.272 Z M 1203.314 65.655 A 5.938 5.938 0 0 0 1203.028 67.53 A 6.647 6.647 0 0 0 1203.062 68.206 A 4.957 4.957 0 0 0 1204.371 71.168 A 4.008 4.008 0 0 0 1205.227 71.863 Q 1205.921 72.284 1206.829 72.468 A 7.705 7.705 0 0 0 1208.351 72.608 A 9.022 9.022 0 0 0 1208.835 72.596 Q 1209.68 72.55 1210.382 72.342 A 4.367 4.367 0 0 0 1212.355 71.168 A 4.798 4.798 0 0 0 1213.46 69.308 A 5.796 5.796 0 0 0 1213.722 67.53 A 6.752 6.752 0 0 0 1213.709 67.116 A 5.155 5.155 0 0 0 1212.355 63.844 A 4.129 4.129 0 0 0 1211.651 63.232 Q 1210.914 62.725 1209.927 62.511 A 7.436 7.436 0 0 0 1208.351 62.354 Q 1205.714 62.354 1204.371 63.844 A 5.046 5.046 0 0 0 1203.314 65.655 Z" vector-effect="non-scaling-stroke"/></g></svg>