<svg width="276.221" height="73.049" viewBox="0 0 276.221 73.049" xmlns="http://www.w3.org/2000/svg"><g id="svgGroup" stroke-linecap="round" fill-rule="evenodd" font-size="9pt" stroke="#000" stroke-width="0.25mm" fill="none" style="stroke:#000;stroke-width:0.25mm;fill:none"><path d="M 0 0.977 L 12.109 0.977 L 35.352 58.985 L 58.594 0.977 L 70.752 0.977 L 70.752 72.071 L 61.377 72.071 L 61.377 44.386 L 62.256 14.503 L 38.916 72.071 L 31.738 72.071 L 8.447 14.649 L 9.375 44.386 L 9.375 72.071 L 0 72.071 L 0 0.977 Z M 244.482 72.071 L 224.805 72.071 L 224.805 0.977 L 244.873 0.977 A 35.659 35.659 0 0 1 254.092 2.126 A 29.679 29.679 0 0 1 261.279 5.079 A 27.74 27.74 0 0 1 272.29 16.749 A 35.446 35.446 0 0 1 275.811 28.181 A 45.253 45.253 0 0 1 276.221 34.132 L 276.221 38.673 Q 276.221 48.731 272.339 56.3 A 27.305 27.305 0 0 1 261.255 67.921 A 32.013 32.013 0 0 1 250.233 71.624 A 41.308 41.308 0 0 1 244.482 72.071 Z M 141.992 34.327 L 141.992 38.819 A 52.539 52.539 0 0 1 141.27 47.742 A 38.392 38.392 0 0 1 138.477 57.056 A 29.42 29.42 0 0 1 134.072 64.108 A 24.73 24.73 0 0 1 128.516 68.946 A 26.243 26.243 0 0 1 117.197 72.844 A 33.257 33.257 0 0 1 113.477 73.048 A 29.087 29.087 0 0 1 104.516 71.706 A 25.698 25.698 0 0 1 98.584 68.922 A 26.573 26.573 0 0 1 89.693 59.456 A 32.814 32.814 0 0 1 88.501 57.154 A 38.071 38.071 0 0 1 85.423 46.943 A 50.383 50.383 0 0 1 84.814 39.454 L 84.814 34.327 A 50.218 50.218 0 0 1 85.651 24.955 A 38.458 38.458 0 0 1 88.379 16.212 A 29.878 29.878 0 0 1 92.92 8.992 A 25.278 25.278 0 0 1 98.462 4.176 A 26.547 26.547 0 0 1 111.309 0.066 A 32.447 32.447 0 0 1 113.379 0.001 Q 121.924 0.001 128.442 4.127 A 25.667 25.667 0 0 1 137.037 13.253 A 32.361 32.361 0 0 1 138.477 16.09 A 39.162 39.162 0 0 1 141.366 26.008 A 52.924 52.924 0 0 1 141.992 34.327 Z M 210.742 34.327 L 210.742 38.819 A 52.539 52.539 0 0 1 210.02 47.742 A 38.392 38.392 0 0 1 207.227 57.056 A 29.42 29.42 0 0 1 202.822 64.108 A 24.73 24.73 0 0 1 197.266 68.946 A 26.243 26.243 0 0 1 185.947 72.844 A 33.257 33.257 0 0 1 182.227 73.048 A 29.087 29.087 0 0 1 173.266 71.706 A 25.698 25.698 0 0 1 167.334 68.922 A 26.573 26.573 0 0 1 158.443 59.456 A 32.814 32.814 0 0 1 157.251 57.154 A 38.071 38.071 0 0 1 154.173 46.943 A 50.383 50.383 0 0 1 153.564 39.454 L 153.564 34.327 A 50.218 50.218 0 0 1 154.401 24.955 A 38.458 38.458 0 0 1 157.129 16.212 A 29.878 29.878 0 0 1 161.67 8.992 A 25.278 25.278 0 0 1 167.212 4.176 A 26.547 26.547 0 0 1 180.059 0.066 A 32.447 32.447 0 0 1 182.129 0.001 Q 190.674 0.001 197.192 4.127 A 25.667 25.667 0 0 1 205.787 13.253 A 32.361 32.361 0 0 1 207.227 16.09 A 39.162 39.162 0 0 1 210.116 26.008 A 52.924 52.924 0 0 1 210.742 34.327 Z M 245.117 8.692 L 234.18 8.692 L 234.18 64.405 L 244.043 64.405 A 27.992 27.992 0 0 0 251.07 63.572 A 19.416 19.416 0 0 0 260.913 57.667 A 21.969 21.969 0 0 0 265.483 49.35 Q 266.943 44.606 266.943 38.477 L 266.943 34.327 A 41.512 41.512 0 0 0 266.331 26.961 Q 265.077 20.015 261.255 15.504 A 18.739 18.739 0 0 0 250.189 9.182 A 27.764 27.764 0 0 0 245.117 8.692 Z M 132.666 39.503 L 132.666 34.229 A 50.57 50.57 0 0 0 132.17 26.9 Q 131.625 23.185 130.479 20.165 A 21.595 21.595 0 0 0 127.588 14.82 Q 122.51 8.057 113.379 8.057 A 18.706 18.706 0 0 0 106.783 9.174 A 16.332 16.332 0 0 0 99.39 14.82 A 23.472 23.472 0 0 0 95.783 22.027 Q 94.221 27.026 94.141 33.595 L 94.141 38.819 Q 94.141 51.075 99.292 58.082 A 16.351 16.351 0 0 0 111.146 64.965 A 21.456 21.456 0 0 0 113.477 65.089 A 19.886 19.886 0 0 0 119.682 64.168 A 15.809 15.809 0 0 0 127.539 58.472 Q 132.52 51.856 132.666 39.503 Z M 201.416 39.503 L 201.416 34.229 A 50.57 50.57 0 0 0 200.92 26.9 Q 200.375 23.185 199.229 20.165 A 21.595 21.595 0 0 0 196.338 14.82 Q 191.26 8.057 182.129 8.057 A 18.706 18.706 0 0 0 175.533 9.174 A 16.332 16.332 0 0 0 168.14 14.82 A 23.472 23.472 0 0 0 164.533 22.027 Q 162.971 27.026 162.891 33.595 L 162.891 38.819 Q 162.891 51.075 168.042 58.082 A 16.351 16.351 0 0 0 179.896 64.965 A 21.456 21.456 0 0 0 182.227 65.089 A 19.886 19.886 0 0 0 188.432 64.168 A 15.809 15.809 0 0 0 196.289 58.472 Q 201.27 51.856 201.416 39.503 Z" vector-effect="non-scaling-stroke"/></g></svg>